<svg width="73" height="82" viewBox="0 0 73 82" fill="none" xmlns="http://www.w3.org/2000/svg">
<path d="M28.46 36.7074V35.2764C28.46 34.3764 28.568 33.6294 28.784 33.0354C29.018 32.4234 29.306 31.9014 29.648 31.4694C30.008 31.0374 30.368 30.6504 30.728 30.3084C31.214 29.8584 31.646 29.4174 32.024 28.9854C32.402 28.5354 32.591 27.9504 32.591 27.2304C32.591 26.6544 32.384 26.2044 31.97 25.8804C31.574 25.5384 31.169 25.3674 30.755 25.3674C30.233 25.3674 29.792 25.4934 29.432 25.7454C29.09 25.9794 28.802 26.2854 28.568 26.6634C28.352 27.0414 28.163 27.4374 28.001 27.8514L24.896 26.3934C25.004 26.0694 25.193 25.6554 25.463 25.1514C25.733 24.6474 26.111 24.1434 26.597 23.6394C27.101 23.1354 27.722 22.7124 28.46 22.3704C29.216 22.0284 30.116 21.8574 31.16 21.8574C32.186 21.8574 33.104 22.0374 33.914 22.3974C34.742 22.7394 35.399 23.2794 35.885 24.0174C36.371 24.7374 36.614 25.6914 36.614 26.8794C36.614 27.8694 36.479 28.6704 36.209 29.2824C35.939 29.8944 35.606 30.4164 35.21 30.8484C34.814 31.2624 34.418 31.6764 34.022 32.0904C33.554 32.5584 33.14 33.0984 32.78 33.7104C32.42 34.3044 32.24 35.1144 32.24 36.1404V36.7074H28.46ZM30.35 42.4044C29.702 42.4044 29.171 42.2334 28.757 41.8914C28.343 41.5314 28.136 41.0634 28.136 40.4874C28.136 39.9294 28.343 39.4614 28.757 39.0834C29.189 38.7054 29.72 38.5164 30.35 38.5164C30.98 38.5164 31.493 38.7054 31.889 39.0834C32.303 39.4614 32.51 39.9294 32.51 40.4874C32.51 41.0634 32.312 41.5314 31.916 41.8914C31.52 42.2334 30.998 42.4044 30.35 42.4044Z" fill="#918F98"/>
<path fill-rule="evenodd" clip-rule="evenodd" d="M5.44903 81.916L11.233 56.3702C2.07404 46.7302 1.05625 38.0542 0.629064 31.7888C-0.527729 14.8225 11.714 4.68748 20.3909 1.90455C40.8276 -4.65061 53.6483 7.20647 57.0227 14.9185L72.4466 45.7663H61.8417V54.3702C55.9458 54.3705 51.1664 59.1502 51.1664 65.0461H55.1664C55.1664 61.3593 58.155 58.3705 61.8417 58.3702V71.7941H39.6708L36.2968 81.916H5.44903ZM50.2741 31.3063C50.2741 41.9542 41.6422 50.5861 30.9942 50.5861C20.3462 50.5861 11.7143 41.9542 11.7143 31.3063C11.7143 20.6583 20.3462 12.0264 30.9942 12.0264C41.6422 12.0264 50.2741 20.6583 50.2741 31.3063Z" fill="#8EDCE6"/>
</svg>
