<svg width="20" height="25" viewBox="0 0 20 25" fill="none" xmlns="http://www.w3.org/2000/svg">
<path d="M2.53015 0.929932H17.4602C19.3902 1.74993 19.8302 2.42991 19.8302 4.59991C19.8302 10.3099 19.8302 16.0299 19.8302 21.7499C19.8649 22.175 19.8068 22.6026 19.6598 23.003C19.5128 23.4034 19.2804 23.767 18.9788 24.0686C18.6772 24.3702 18.3136 24.6026 17.9132 24.7496C17.5128 24.8966 17.0853 24.9547 16.6602 24.9199H3.32015C3.05551 24.9252 2.79096 24.9051 2.53015 24.8599C1.95673 24.7392 1.42945 24.458 1.00982 24.049C0.590188 23.6399 0.295511 23.1201 0.160156 22.5499V3.24994C0.316217 2.68894 0.617506 2.17901 1.03362 1.77167C1.44974 1.36433 1.96595 1.074 2.53015 0.929932ZM18.5302 12.9299V4.1499C18.5697 3.89572 18.5486 3.6358 18.4684 3.39136C18.3883 3.14691 18.2514 2.92488 18.0691 2.74347C17.8867 2.56206 17.6639 2.42643 17.4191 2.3476C17.1742 2.26877 16.9141 2.24898 16.6602 2.28992H3.38016C3.12654 2.24848 2.86669 2.26798 2.62209 2.3468C2.3775 2.42562 2.15516 2.56151 1.97344 2.74323C1.79173 2.92494 1.65585 3.14725 1.57703 3.39185C1.49822 3.63644 1.47872 3.89628 1.52016 4.1499C1.52016 9.99657 1.52016 15.8466 1.52016 21.7C1.47922 21.9539 1.49897 22.2139 1.5778 22.4588C1.65663 22.7037 1.7923 22.9264 1.97371 23.1088C2.15512 23.2912 2.37713 23.4281 2.62157 23.5082C2.86602 23.5884 3.12597 23.6095 3.38016 23.5699H16.6102C16.8651 23.6113 17.1262 23.5915 17.372 23.5121C17.6177 23.4328 17.8412 23.2961 18.0238 23.1135C18.2064 22.9309 18.343 22.7075 18.4224 22.4617C18.5017 22.216 18.5215 21.9549 18.4802 21.7L18.5302 12.9299Z" fill="#666666"/>
<path d="M16.8589 7.18994H3.12891V3.85992H16.8589V7.18994Z" fill="#666666"/>
<path d="M9.71204 11.7399H4.41205C4.28205 11.7399 4.15204 11.7399 4.01204 11.7399C3.92203 11.7443 3.83211 11.7297 3.74815 11.697C3.6642 11.6642 3.5881 11.6141 3.52485 11.5499C3.4616 11.4857 3.41263 11.4088 3.38112 11.3244C3.34962 11.24 3.33631 11.1499 3.34205 11.0599C3.33445 10.97 3.34656 10.8795 3.37755 10.7948C3.40853 10.7101 3.45764 10.6331 3.52144 10.5693C3.58523 10.5055 3.66219 10.4564 3.74692 10.4254C3.83166 10.3944 3.92214 10.3824 4.01204 10.39C4.63204 10.39 5.26205 10.39 5.88205 10.39H15.412C15.872 10.39 16.202 10.5699 16.202 11.0599C16.202 11.5499 15.872 11.7399 15.412 11.7399H9.71204Z" fill="#666666"/>
<path d="M9.70907 15.01H3.96908C3.87907 15.0144 3.78914 14.9997 3.70518 14.9669C3.62123 14.9342 3.54513 14.8841 3.48188 14.8199C3.41864 14.7557 3.36966 14.6789 3.33815 14.5944C3.30665 14.51 3.29334 14.4199 3.29908 14.33C3.29148 14.2401 3.30359 14.1496 3.33458 14.0648C3.36556 13.9801 3.41467 13.9031 3.47847 13.8393C3.54227 13.7755 3.61922 13.7264 3.70395 13.6954C3.78869 13.6645 3.87917 13.6523 3.96908 13.6599C4.58908 13.6599 5.21908 13.6599 5.83908 13.6599H15.3691C15.8291 13.6599 16.1591 13.8499 16.1591 14.3399C16.1591 14.8299 15.8291 15.02 15.3691 15.02L9.70907 15.01Z" fill="#666666"/>
<path d="M6.97203 18.5399H4.18203C3.63203 18.5399 3.33203 18.2999 3.33203 17.8699C3.33203 17.4399 3.63203 17.1899 4.18203 17.1899H9.82203C10.382 17.1899 10.672 17.4299 10.672 17.8699C10.672 18.3099 10.372 18.5399 9.82203 18.5399H6.97203Z" fill="#666666"/>
</svg>
