<svg width="57" height="57" viewBox="0 0 57 57" fill="none" xmlns="http://www.w3.org/2000/svg">
<path d="M47.4167 15.4163V24.1372C47.4167 24.1372 41.6125 24.1663 41.5833 24.1372V15.4163H32.8333C32.8333 15.4163 32.8625 9.61217 32.8333 9.58301H41.5833V0.833008H47.4167V9.58301H56.1667V15.4163H47.4167ZM38.6667 27.083V18.333H29.9167V9.58301H6.58333C3.375 9.58301 0.75 12.208 0.75 15.4163V50.4163C0.75 53.6247 3.375 56.2497 6.58333 56.2497H41.5833C44.7917 56.2497 47.4167 53.6247 47.4167 50.4163V27.083H38.6667ZM6.58333 50.4163L15.3333 38.7497L21.1667 47.4997L29.9167 35.833L41.5833 50.4163H6.58333Z" fill="#C4C4C4"/>
</svg>
