<svg width="25" height="12" viewBox="0 0 25 12" fill="none" xmlns="http://www.w3.org/2000/svg">
<path d="M1 6.75C0.585787 6.75 0.25 6.41421 0.25 6C0.25 5.58579 0.585787 5.25 1 5.25V6.75ZM24.5303 5.46967C24.8232 5.76256 24.8232 6.23744 24.5303 6.53033L19.7574 11.3033C19.4645 11.5962 18.9896 11.5962 18.6967 11.3033C18.4038 11.0104 18.4038 10.5355 18.6967 10.2426L22.9393 6L18.6967 1.75736C18.4038 1.46447 18.4038 0.989593 18.6967 0.696699C18.9896 0.403806 19.4645 0.403806 19.7574 0.696699L24.5303 5.46967ZM1 5.25H24V6.75H1V5.25Z" fill="black"/>
</svg>
