<?xml version="1.0" encoding="UTF-8" standalone="no"?>
<svg
   width="22.301758"
   height="20.302179"
   viewBox="0 0 22.301758 20.302179"
   fill="none"
   version="1.1"
   id="svg8"
   sodipodi:docname="b4c631e44e6045da0d46b210eeefa644.svg"
   xmlns:inkscape="http://www.inkscape.org/namespaces/inkscape"
   xmlns:sodipodi="http://sodipodi.sourceforge.net/DTD/sodipodi-0.dtd"
   xmlns="http://www.w3.org/2000/svg"
   xmlns:svg="http://www.w3.org/2000/svg">
  <defs
     id="defs12" />
  <sodipodi:namedview
     id="namedview10"
     pagecolor="#ffffff"
     bordercolor="#666666"
     borderopacity="1.0"
     inkscape:pageshadow="2"
     inkscape:pageopacity="0.0"
     inkscape:pagecheckerboard="0" />
  <path
     d="M 0.89999998,0.90217937 H 2.55424 c 0.47839,0 0.71759,0 0.91204,0.08674 0.17143,0.07647 0.31787,0.19964003 0.42258,0.35543003 0.11877,0.17671 0.15976,0.41237 0.24172,0.88368 l 0.37812,2.17415 m 0,0 0.88303,5.0774 c 0.17918,1.0302996 0.26877,1.5453996 0.5341,1.9164996 0.23362,0.3268 0.56023,0.5756 0.93728,0.7141 0.42822,0.1574 0.94865,0.107 1.98953,0.0063 l 9.66136,-0.935 c 1.0158,-0.0983 1.5238,-0.1475 1.9081,-0.376 0.3432,-0.204 0.6174,-0.5061 0.7874,-0.8672996 0.1905,-0.4046 0.1905,-0.9149 0.1905,-1.9355 v 0 c 0,-1.08468 0,-1.62702 -0.2078,-2.04656 -0.1854,-0.37423 -0.4832,-0.68104 -0.8518,-0.8774 -0.4132,-0.22014 -0.9553,-0.23618 -2.0395,-0.26828 z"
     stroke="#262f56"
     stroke-width="1.8"
     stroke-linecap="round"
     stroke-linejoin="round"
     id="path2" />
  <circle
     cx="8.3999996"
     cy="17.40218"
     stroke="#262f56"
     stroke-width="1.8"
     id="ellipse4"
     r="2" />
  <circle
     cx="17.9"
     cy="17.40218"
     stroke="#262f56"
     stroke-width="1.8"
     id="ellipse6"
     r="2" />
</svg>
