<svg width="90" height="73" viewBox="0 0 90 73" fill="none" xmlns="http://www.w3.org/2000/svg">
<path d="M15.5214 2.66735L3.84994 1C1.41757 1.54925 0.940245 3.19044 1.00563 3.94239C1.00563 5.98244 2.50952 7.01555 3.26146 7.27709L12.4809 8.74829L27.5852 52.1975C28.2914 54.5514 30.4295 55.0091 31.4103 54.9438C37.2166 49.2159 43.1145 52.5572 45.3376 54.9438H60.4418C66.1697 49.1374 71.9172 52.5245 74.0749 54.9438C75.8796 54.9438 76.9192 53.636 77.2135 52.9822L88.8849 17.8697C89.5126 15.6727 87.5118 14.4042 86.4329 14.0446H21.7004L17.483 4.33471C17.0122 3.23621 15.9791 2.76543 15.5214 2.66735Z" fill="#8EDCE6" stroke="#8EDCE6"/>
<circle cx="38.3687" cy="63.7711" r="8.72908" fill="#918F98"/>
<circle cx="67.4" cy="63.7711" r="8.72908" fill="#918F98"/>
</svg>
