<svg width="18" height="18" viewBox="0 0 18 18" fill="none" xmlns="http://www.w3.org/2000/svg">
<path d="M4.33984 1.8875C4.33984 0.948615 5.10096 0.1875 6.03984 0.1875H11.1398C12.0788 0.1875 12.8398 0.948615 12.8398 1.8875V3.5875H14.5311C14.5364 3.58745 14.5416 3.58745 14.5469 3.5875H16.2398C16.7093 3.5875 17.0898 3.96806 17.0898 4.4375C17.0898 4.90694 16.7093 5.2875 16.2398 5.2875H15.3313L14.5941 15.6086C14.5305 16.4982 13.7903 17.1875 12.8984 17.1875H4.2813C3.38941 17.1875 2.64916 16.4982 2.58561 15.6086L1.84839 5.2875H0.939844C0.470406 5.2875 0.0898438 4.90694 0.0898438 4.4375C0.0898438 3.96806 0.470406 3.5875 0.939844 3.5875H2.63282C2.6381 3.58745 2.64336 3.58745 2.64862 3.5875H4.33984V1.8875ZM6.03984 3.5875H11.1398V1.8875H6.03984V3.5875ZM3.55273 5.2875L4.2813 15.4875H12.8984L13.6269 5.2875H3.55273ZM6.88984 6.9875C7.3593 6.9875 7.73984 7.36804 7.73984 7.8375V12.9375C7.73984 13.407 7.3593 13.7875 6.88984 13.7875C6.42041 13.7875 6.03984 13.407 6.03984 12.9375V7.8375C6.03984 7.36804 6.42041 6.9875 6.88984 6.9875ZM10.2898 6.9875C10.7593 6.9875 11.1398 7.36804 11.1398 7.8375V12.9375C11.1398 13.407 10.7593 13.7875 10.2898 13.7875C9.82039 13.7875 9.43984 13.407 9.43984 12.9375V7.8375C9.43984 7.36804 9.82039 6.9875 10.2898 6.9875Z" fill="#D8232A"/>
</svg>
