<svg width="17" height="17" viewBox="0 0 17 17" fill="none" xmlns="http://www.w3.org/2000/svg">
<path d="M4.25 1.7C4.25 0.761115 5.01112 0 5.95 0H11.05C11.9889 0 12.75 0.761115 12.75 1.7V3.4H14.4412C14.4465 3.39995 14.4518 3.39995 14.4571 3.4H16.15C16.6195 3.4 17 3.78056 17 4.25C17 4.71944 16.6195 5.1 16.15 5.1H15.2414L14.5042 15.4211C14.4407 16.3107 13.7005 17 12.8086 17H4.19145C3.29956 17 2.55932 16.3107 2.49577 15.4211L1.75855 5.1H0.85C0.380562 5.1 0 4.71944 0 4.25C0 3.78056 0.380562 3.4 0.85 3.4H2.54298C2.54826 3.39995 2.55352 3.39995 2.55877 3.4H4.25V1.7ZM5.95 3.4H11.05V1.7H5.95V3.4ZM3.46288 5.1L4.19145 15.3H12.8086L13.5371 5.1H3.46288ZM6.8 6.8C7.26945 6.8 7.65 7.18055 7.65 7.65V12.75C7.65 13.2195 7.26945 13.6 6.8 13.6C6.33056 13.6 5.95 13.2195 5.95 12.75V7.65C5.95 7.18055 6.33056 6.8 6.8 6.8ZM10.2 6.8C10.6695 6.8 11.05 7.18055 11.05 7.65V12.75C11.05 13.2195 10.6695 13.6 10.2 13.6C9.73055 13.6 9.35 13.2195 9.35 12.75V7.65C9.35 7.18055 9.73055 6.8 10.2 6.8Z" fill="#434343"/>
</svg>
