<svg width="10" height="10" viewBox="0 0 10 10" fill="none" xmlns="http://www.w3.org/2000/svg">
<path d="M1.36373 0.000127869C1.24743 0.000127869 1.13099 0.0444307 1.04236 0.133292L0.133292 1.04236C-0.0444307 1.22008 -0.0444307 1.50783 0.133292 1.6851L3.44819 5L0.133292 8.3149C-0.0444307 8.49262 -0.0444307 8.78037 0.133292 8.95764L1.04236 9.86671C1.22008 10.0444 1.50783 10.0444 1.6851 9.86671L5 6.55181L8.3149 9.86671C8.49217 10.0444 8.78037 10.0444 8.95764 9.86671L9.86671 8.95764C10.0444 8.77992 10.0444 8.49217 9.86671 8.3149L6.55181 5L9.86671 1.6851C10.0444 1.50783 10.0444 1.21963 9.86671 1.04236L8.95764 0.133292C8.77992 -0.0444307 8.49217 -0.0444307 8.3149 0.133292L5 3.44819L1.6851 0.133292C1.59624 0.0444307 1.48003 0.000127869 1.36373 0.000127869Z" fill="#98C1D9"/>
</svg>
