<svg width="12" height="11" viewBox="0 0 12 11" fill="none" xmlns="http://www.w3.org/2000/svg">
<path d="M10.9637 1.70249C10.8875 2.01198 10.7098 2.28705 10.459 2.48366C10.2081 2.68028 9.89862 2.78712 9.5799 2.78712C9.26118 2.78712 8.95166 2.68028 8.70082 2.48366C8.44997 2.28705 8.27228 2.01198 8.19615 1.70249H0.276152C0.205675 1.69124 0.141518 1.65526 0.0952005 1.60096C0.0488826 1.54666 0.0234375 1.47764 0.0234375 1.40627C0.0234375 1.3349 0.0488826 1.26584 0.0952005 1.21154C0.141518 1.15724 0.205675 1.12126 0.276152 1.11001C0.373509 1.10254 0.471294 1.10254 0.568651 1.11001H7.96365C8.04099 1.12358 8.12058 1.10705 8.18612 1.06382C8.25166 1.02059 8.29818 0.95394 8.31615 0.877509C8.41727 0.616561 8.59495 0.392267 8.82584 0.234122C9.05673 0.0759775 9.33005 -0.00862974 9.6099 -0.00862974C9.88976 -0.00862974 10.1631 0.0759775 10.394 0.234122C10.6249 0.392267 10.8025 0.616561 10.9037 0.877509C10.9108 0.911637 10.9246 0.944 10.9443 0.972724C10.9641 1.00145 10.9894 1.02597 11.0187 1.04482C11.048 1.06367 11.0808 1.07645 11.1151 1.0825C11.1495 1.08854 11.1847 1.08768 11.2187 1.07998C11.386 1.06874 11.5538 1.06874 11.7211 1.07998C11.7621 1.07639 11.8033 1.08198 11.8419 1.09627C11.8804 1.11057 11.9153 1.13322 11.944 1.16265C11.9727 1.19208 11.9945 1.22749 12.0079 1.26638C12.0212 1.30526 12.0258 1.34665 12.0212 1.3875C12.0225 1.42822 12.015 1.46874 11.9993 1.50634C11.9836 1.54394 11.9601 1.57773 11.9302 1.60545C11.9004 1.63316 11.8649 1.65415 11.8263 1.66701C11.7876 1.67988 11.7467 1.68432 11.7062 1.68001L10.9637 1.70249ZM9.59115 2.19752C9.78964 2.17826 9.97385 2.08577 10.1079 1.9381C10.2419 1.79044 10.3162 1.59819 10.3162 1.39876C10.3162 1.19934 10.2419 1.00704 10.1079 0.859382C9.97385 0.711719 9.78964 0.619269 9.59115 0.600013C9.39266 0.619269 9.20845 0.711719 9.07442 0.859382C8.94039 1.00704 8.86614 1.19934 8.86614 1.39876C8.86614 1.59819 8.94039 1.79044 9.07442 1.9381C9.20845 2.08577 9.39266 2.17826 9.59115 2.19752Z" fill="white"/>
<path d="M2.925 8.37753H5.4675C5.52884 8.38673 5.59139 8.37256 5.64278 8.33784C5.69417 8.30312 5.73065 8.25037 5.745 8.19003C5.84451 7.92164 6.02502 7.69082 6.26152 7.52957C6.49802 7.36831 6.77881 7.28461 7.065 7.29002C7.34865 7.29253 7.6248 7.38147 7.85662 7.54495C8.08843 7.70842 8.26491 7.93865 8.3625 8.205C8.415 8.3625 8.49 8.3925 8.64 8.3925H11.73C11.8043 8.39638 11.8741 8.42917 11.9245 8.48382C11.975 8.53847 12.0021 8.61066 12 8.68501C12.0041 8.72108 12.001 8.75763 11.9907 8.79244C11.9804 8.82726 11.9631 8.85965 11.94 8.88766C11.9169 8.91567 11.8884 8.93872 11.8562 8.95545C11.824 8.97219 11.7887 8.98224 11.7525 8.98502C11.6727 8.99227 11.5923 8.99227 11.5125 8.98502H8.685C8.61181 8.97316 8.53682 8.98881 8.4745 9.02897C8.41218 9.06913 8.36693 9.13096 8.3475 9.20251C8.246 9.46519 8.06738 9.69104 7.83513 9.85029C7.60287 10.0095 7.32786 10.0947 7.04625 10.0947C6.76464 10.0947 6.48962 10.0095 6.25737 9.85029C6.02511 9.69104 5.84649 9.46519 5.745 9.20251C5.73224 9.1373 5.69453 9.07965 5.6399 9.04183C5.58527 9.00401 5.51803 8.98903 5.4525 9.00004H0.502499C0.142499 9.00004 0 8.91001 0 8.68501C0 8.46001 0.150001 8.3925 0.487501 8.3925L2.925 8.37753ZM7.0575 7.89001C6.95145 7.88242 6.84499 7.89745 6.7452 7.93414C6.6454 7.97082 6.55455 8.02831 6.47866 8.10278C6.40277 8.17725 6.34359 8.267 6.30503 8.36608C6.26646 8.46517 6.24941 8.57132 6.255 8.6775C6.25499 8.88904 6.33851 9.09205 6.48739 9.24233C6.63627 9.39262 6.83847 9.47803 7.05 9.48C7.25171 9.47514 7.44449 9.39585 7.59126 9.25739C7.73802 9.11894 7.8284 8.93109 7.845 8.73C7.85836 8.62099 7.84762 8.5104 7.81353 8.406C7.77944 8.3016 7.72284 8.20592 7.64772 8.1258C7.57261 8.04568 7.48081 7.98303 7.37882 7.94229C7.27684 7.90154 7.16715 7.8837 7.0575 7.89001Z" fill="white"/>
<path d="M7.88217 5.34004H4.13217C4.06664 5.32903 3.99941 5.34401 3.94478 5.38183C3.89015 5.41966 3.85243 5.4773 3.83967 5.54251C3.74102 5.80846 3.56281 6.03758 3.3293 6.19862C3.09579 6.35966 2.81832 6.44481 2.53467 6.44252C2.2509 6.4449 1.97344 6.35875 1.74089 6.1961C1.50835 6.03346 1.33228 5.80237 1.23717 5.535C1.23097 5.50214 1.21817 5.47091 1.19956 5.44313C1.18094 5.41535 1.15689 5.39164 1.12885 5.37341C1.10081 5.35519 1.06937 5.34285 1.03643 5.33711C1.00349 5.33137 0.96972 5.33237 0.937173 5.34004H0.307173C0.112173 5.34004 -0.0228274 5.24252 -0.0153274 5.03252C-0.00782743 4.82252 0.119672 4.74 0.314672 4.74H0.997174C1.12467 4.74 1.16967 4.69503 1.21467 4.58253C1.30997 4.30638 1.48911 4.06686 1.7271 3.89744C1.96509 3.72803 2.25004 3.63717 2.54217 3.63753C2.83071 3.63587 3.11251 3.72467 3.34794 3.89149C3.58337 4.05831 3.76059 4.29475 3.85467 4.56752C3.91467 4.73252 4.00467 4.74 4.13967 4.74H11.6397C11.8422 4.74 11.9847 4.80752 11.9997 5.03252C12.0147 5.25752 11.8722 5.34004 11.6247 5.34004H7.88217ZM2.57217 4.24502C2.36133 4.24502 2.15911 4.3288 2.01002 4.47789C1.86093 4.62698 1.77717 4.82918 1.77717 5.04002C1.77717 5.25087 1.86093 5.45307 2.01002 5.60216C2.15911 5.75125 2.36133 5.83502 2.57217 5.83502C2.78302 5.83502 2.98523 5.75125 3.13432 5.60216C3.28342 5.45307 3.36717 5.25087 3.36717 5.04002C3.36717 4.82918 3.28342 4.62698 3.13432 4.47789C2.98523 4.3288 2.78302 4.24502 2.57217 4.24502Z" fill="white"/>
</svg>
