<svg width="20" height="23" viewBox="0 0 20 23" fill="none" xmlns="http://www.w3.org/2000/svg">
<path fill-rule="evenodd" clip-rule="evenodd" d="M11.0008 22.2984C13.4413 20.5905 19.5 15.7638 19.5 9.94075C19.5 4.47544 15.2467 0.0449219 10 0.0449219C4.75329 0.0449219 0.5 4.47544 0.5 9.94075C0.5 15.7638 6.55867 20.5905 8.99916 22.2984C9.60696 22.7238 10.393 22.7238 11.0008 22.2984ZM10.0016 13.0625C11.6584 13.0625 13.0016 11.6634 13.0016 9.9375C13.0016 8.21161 11.6584 6.8125 10.0016 6.8125C8.34471 6.8125 7.00156 8.21161 7.00156 9.9375C7.00156 11.6634 8.34471 13.0625 10.0016 13.0625Z" fill="white"/>
</svg>
