<svg width="24" height="24" viewBox="0 0 24 24" fill="none" xmlns="http://www.w3.org/2000/svg">
<path d="M21.5 10H20.5V8.5C20.5 6.24566 19.6045 4.08362 18.0104 2.48956C16.4163 0.895504 14.2543 0 12 0C9.74566 0 7.58365 0.895504 5.98959 2.48956C4.39553 4.08362 3.5 6.24566 3.5 8.5V10H2.5C1.83696 10 1.20107 10.2634 0.732231 10.7322C0.26339 11.2011 0 11.837 0 12.5V15.5C0.00263315 16.1622 0.266874 16.7966 0.735146 17.2648C1.20342 17.7331 1.83777 17.9974 2.5 18H5.5V10H4.5V8.5C4.5 6.51088 5.29018 4.60324 6.6967 3.19672C8.10322 1.79019 10.0109 1 12 1C13.9891 1 15.8968 1.79019 17.3033 3.19672C18.7098 4.60324 19.5 6.51088 19.5 8.5V10H18.5V18H19.5V20.5C19.4974 20.897 19.3385 21.277 19.0578 21.5577C18.777 21.8385 18.397 21.9974 18 22H14.6C14.4956 21.709 14.3044 21.4571 14.0523 21.2783C13.8001 21.0994 13.4991 21.0023 13.19 21H9.49C9.09217 21 8.71065 21.158 8.42934 21.4393C8.14804 21.7206 7.99 22.1022 7.99 22.5C7.99 22.8978 8.14804 23.2794 8.42934 23.5607C8.71065 23.842 9.09217 24 9.49 24H13.19C13.4991 23.9977 13.8001 23.9006 14.0523 23.7217C14.3044 23.5429 14.4956 23.291 14.6 23H17.97C18.6322 22.9974 19.2666 22.7331 19.7349 22.2648C20.2031 21.7966 20.4674 21.1622 20.47 20.5V18H21.47C22.1322 17.9974 22.7666 17.7331 23.2349 17.2648C23.7031 16.7966 23.9674 16.1622 23.97 15.5V12.5C23.97 11.8421 23.7108 11.2107 23.2484 10.7427C22.786 10.2747 22.1578 10.0079 21.5 10Z" fill="#666666"/>
</svg>
