<svg xmlns="http://www.w3.org/2000/svg" width="100" height="70.2" viewBox="0 0 100 70.2">
  <g id="App_icon_2x" data-name="App icon@2x" transform="translate(-22 -36.8)">
    <path id="Path_12662" data-name="Path 12662" d="M30,50.4l-.1,1.8c0,.1,0,.2.1.2h.2a23.433,23.433,0,0,1,6.6-3.1c.1,0,.1-.1.2-.2l.4-2.4c0-.1,0-.2-.1-.2s-.1-.1-.2,0l-1.8.6a3,3,0,0,1-1.2.3c-.9,0-1.3-.2-1.3-.6,0-.1,0-.5.7-.8a2.74,2.74,0,0,1,1.3-.2,1.761,1.761,0,0,1,.6.1,2,2,0,0,0,.7.1c.4,0,.6-.2.6-.5a1.09,1.09,0,0,0-.1-.5,2.93,2.93,0,0,0-1.2-1.3,3.37,3.37,0,0,0-1.7-.5,3,3,0,0,0-2.4,1.5,4.841,4.841,0,0,0-.9,2.7,2.08,2.08,0,0,0,.5,1.2,2.649,2.649,0,0,0,.6.5c-.4.3-.8.6-1.3,1C30,50.3,30,50.4,30,50.4Z" fill="#939393"/>
    <path id="Path_12663" data-name="Path 12663" d="M25.2,61.9c1.6.9,4,1.3,7.3,1.3h2.3a22.1,22.1,0,0,0,3.9-.3,19.676,19.676,0,0,0,3.5-.6c3-.7,4.5-2.7,4.5-6.3,0-1.8.1-4.3.2-7.3V37.2c0-.3-.1-.4-.2-.4a2.6,2.6,0,0,0-.7.3l-4.8,3.4a.91.91,0,0,0-.3.7c-.2.9.5,11.2.5,11.2a3,3,0,0,1-2.7,3l-2,.1h-4q-5,0-6.6-1.5a3.43,3.43,0,0,1-1-2.8c0-1.1-.3-1.7-.9-1.7s-1.2.7-1.6,2.1a12.088,12.088,0,0,0-.6,3.8C22,58.7,23.1,60.7,25.2,61.9Z" fill="#939393"/>
    <path id="Path_12664" data-name="Path 12664" d="M98.1,47.7a2.689,2.689,0,1,0-1.035-.2A2.7,2.7,0,0,0,98.1,47.7Z" fill="#939393"/>
    <path id="Path_12665" data-name="Path 12665" d="M120.8,59.5a8.146,8.146,0,0,0,1.1-3.7,9.79,9.79,0,0,0-3.3-7,28.367,28.367,0,0,0-6.7-4.7,2.175,2.175,0,0,0-1-.4c-.3,0-.6.3-.8.8l-2.2,5,1,.6a2.872,2.872,0,0,0-1.6,2.9,2.416,2.416,0,0,0,.4,1.5h-2.2a2.48,2.48,0,0,1-2.3-1.1,11.03,11.03,0,0,1-.5-1.9c-.2-.7-.5-1.1-1-1.1s-.9.4-1.1,1.1a7.466,7.466,0,0,1-.7,1.9,2.78,2.78,0,0,1-2.4,1.1H58.8c-1.3-.1-1.9-.9-1.9-2.4V37.5c0-.3-.1-.4-.2-.4a2.6,2.6,0,0,0-.7.3l-4.8,3.4c-.3.2-.3.6-.3,1.1a51.811,51.811,0,0,1,.4,6.3c.1,3,.2,5.4.2,7.3,0,4.3,2.1,6.5,6.2,6.5h40a4.049,4.049,0,0,0,3.9-2.2,4.062,4.062,0,0,0,3.7,2.2h3.3a6.377,6.377,0,0,0,4.3-2.2c2.1,1.4,3.7,2.2,4.6,2.2C118.8,62,119.9,61.1,120.8,59.5ZM113.3,54a1.67,1.67,0,0,1-1.1.4,3.079,3.079,0,0,1-1.3-.5c-.6-.3-.8-.7-.8-1a1.431,1.431,0,0,1,.8-1,3.265,3.265,0,0,1,1.3-.4,1.607,1.607,0,0,1,1.1.5,1.215,1.215,0,0,1,.6,1,1.438,1.438,0,0,1-.6,1Zm4.6,3.6a4.731,4.731,0,0,1-1.4-.5,10.607,10.607,0,0,1-1.3-.8,2.409,2.409,0,0,0,1.1-2.2v-.3c1.6,1.1,2.4,2,2.4,2.8C118.7,57.2,118.4,57.6,117.9,57.6Z" fill="#939393"/>
    <path id="Path_12666" data-name="Path 12666" d="M37.8,97.7a1.091,1.091,0,0,0,.9.4H43a1.22,1.22,0,0,0,.9-.4,1.27,1.27,0,0,0,.4-.9V78.4a1.06,1.06,0,0,0-1.2-1.2H38.8a1,1,0,0,0-.9.4,1.27,1.27,0,0,0-.4.9v6.3H29.8V78.5a1.219,1.219,0,0,0-.4-.9,1.27,1.27,0,0,0-.9-.4H24.2a1,1,0,0,0-.9.4,1.27,1.27,0,0,0-.4.9V96.9a1.221,1.221,0,0,0,.4.9,1.091,1.091,0,0,0,.9.4h4.3a1.22,1.22,0,0,0,.9-.4,1.49,1.49,0,0,0,.4-.9V90h7.7v6.9C37.4,97.1,37.5,97.4,37.8,97.7Z" fill="#939393"/>
    <path id="Path_12667" data-name="Path 12667" d="M50.1,98h4a1.22,1.22,0,0,0,.9-.4,1.14,1.14,0,0,0,.3-.8V87.5a.1.1,0,0,1,.1-.1c.1,0,.3.2.6.4,3.1,3.3,5.5,5.8,7.1,7.5a25.126,25.126,0,0,0,2.6,2.6c.2.1.3.1.5.2h4.2A1.72,1.72,0,0,0,72,96.5V78.7a1.72,1.72,0,0,0-1.6-1.6H66.6a.911.911,0,0,0-.8.4,1.27,1.27,0,0,0-.4.9v8.9c0,.3-.1.5-.2.5a.37.37,0,0,1-.3-.1c-1.2-1.2-2.8-2.9-4.9-5S56.4,79,55.5,78a3.2,3.2,0,0,0-.7-.6,2,2,0,0,0-.8-.1H50.3a1.39,1.39,0,0,0-1,.5,1.59,1.59,0,0,0-.4,1.2V96.6a1.5,1.5,0,0,0,.4,1.1A1.21,1.21,0,0,0,50.1,98Z" fill="#939393"/>
    <path id="Path_12668" data-name="Path 12668" d="M97,95.3,90.3,78.5a1.27,1.27,0,0,0-.7-.9,1.84,1.84,0,0,0-1.3-.4H84a1.591,1.591,0,0,0-1.2.4,3.92,3.92,0,0,0-.8,1L75.4,95.4a3.222,3.222,0,0,0-.2.6,3.553,3.553,0,0,0-.2,1q0,1.05,1.2,1.2h4.2a2.509,2.509,0,0,0,1-.2c.3-.2.5-.4.5-.6l.9-3h6.7l.9,3a.9.9,0,0,0,.6.6,3.089,3.089,0,0,0,1.1.2h4.1a1.18,1.18,0,0,0,1.2-1.3c0-.3-.1-.6-.1-.9A1.08,1.08,0,0,1,97,95.3ZM86.4,89.2H83.6l2.3-7,2.4,7Z" fill="#939393"/>
    <path id="Path_12669" data-name="Path 12669" d="M115.1,86.2l5.1-6.9a2.1,2.1,0,0,0,.4-1,.628.628,0,0,0-.18-.52.629.629,0,0,0-.52-.18h-4.6a1.85,1.85,0,0,0-1.8.6l-6.6,8.4V78.7a1,1,0,0,0-1.1-1.1h-4.3a1,1,0,0,0-1.048.661.992.992,0,0,0-.052.439V96.9a1.4,1.4,0,0,0,.3.9,1.221,1.221,0,0,0,.9.3h4.3a1.269,1.269,0,0,0,.6-.1.777.777,0,0,0,.4-.4l4.2-5.7,4,5.7a.751.751,0,0,0,.7.4h5.4a.857.857,0,0,0,.6-.3,1.886,1.886,0,0,0,.2-.8,1.864,1.864,0,0,0-.2-.7Z" fill="#939393"/>
    <path id="Path_12670" data-name="Path 12670" d="M121.9,103.5H22.6V107h99.3Z" fill="#939393"/>
    <path id="Path_12671" data-name="Path 12671" d="M122,68.1H23.5v3.5H122Z" fill="#939393"/>
  </g>
</svg>
