<svg width="32" height="31" viewBox="0 0 32 31" fill="none" xmlns="http://www.w3.org/2000/svg">
<path d="M15.8753 20.4138C18.5246 20.4138 20.6724 18.2661 20.6724 15.6167C20.6724 12.9673 18.5246 10.8196 15.8753 10.8196C13.2259 10.8196 11.0781 12.9673 11.0781 15.6167C11.0781 18.2661 13.2259 20.4138 15.8753 20.4138Z" stroke="white" stroke-width="1.91885" stroke-miterlimit="10"/>
<path d="M21.1501 4.58447H10.5964C7.41714 4.58447 4.83984 7.16177 4.83984 10.341V20.8947C4.83984 24.074 7.41714 26.6513 10.5964 26.6513H21.1501C24.3294 26.6513 26.9067 24.074 26.9067 20.8947V10.341C26.9067 7.16177 24.3294 4.58447 21.1501 4.58447Z" stroke="white" stroke-width="1.91885" stroke-linecap="round" stroke-linejoin="round"/>
<path d="M22.111 10.8214C22.9058 10.8214 23.5502 10.1771 23.5502 9.38225C23.5502 8.58744 22.9058 7.94312 22.111 7.94312C21.3162 7.94312 20.6719 8.58744 20.6719 9.38225C20.6719 10.1771 21.3162 10.8214 22.111 10.8214Z" fill="white"/>
</svg>
