<?xml version="1.0" encoding="utf-8"?>
<!-- Generator: Adobe Illustrator 25.4.7, SVG Export Plug-In . SVG Version: 6.00 Build 0)  -->
<svg version="1.1" id="Layer_1" xmlns="http://www.w3.org/2000/svg" xmlns:xlink="http://www.w3.org/1999/xlink" x="0px" y="0px"
	 viewBox="0 0 70.1 50.2" style="enable-background:new 0 0 70.1 50.2;" xml:space="preserve">
<style type="text/css">
	.st0{clip-path:url(#SVGID_00000008131880946953225110000008869553384516142779_);}
	.st1{fill:#213352;}
	.st2{clip-path:url(#SVGID_00000132088584770490548920000011498145689114522794_);fill:none;}
	.st3{opacity:0.12;}
	.st4{fill:#FFFFFF;}
	.st5{fill:#FFBB00;}
	.st6{fill:#00F1FF;}
	.st7{fill:#FF00F7;}
	.st8{fill:#00FF24;}
	.st9{fill:#FFFFFF;stroke:#FFFFFF;stroke-miterlimit:10;}
	.st10{fill:#FF0068;}
	.st11{clip-path:url(#SVGID_00000099638244515367240670000016488359838385920433_);}
	.st12{clip-path:url(#SVGID_00000146488320054632232370000004366530573617428880_);}
	.st13{clip-path:url(#SVGID_00000099622092349896214300000001983667523186239375_);}
	.st14{clip-path:url(#SVGID_00000056387976415715343630000015340845995100057997_);}
	.st15{fill:#131313;}
	.st16{clip-path:url(#SVGID_00000057868959974320696660000016310493066824625074_);}
	.st17{fill:#020202;}
	.st18{fill:#0C0C0C;}
	.st19{fill:#4F4F4F;}
	.st20{opacity:0.2;}
	.st21{fill:#00FFFF;}
	.st22{clip-path:url(#SVGID_00000112607713026441252050000012204012090442499721_);}
	.st23{clip-path:url(#SVGID_00000162312613850542192880000017019128404571830405_);}
	.st24{clip-path:url(#SVGID_00000055673636665893693910000008456491919530177153_);}
	.st25{clip-path:url(#SVGID_00000058559449180218536190000011839748444553385359_);}
	.st26{clip-path:url(#SVGID_00000058559449180218536190000011839748444553385359_);fill:none;}
	.st27{fill:#CACACA;}
	.st28{clip-path:url(#SVGID_00000141454840069593598640000012349725689596193212_);}
	.st29{clip-path:url(#SVGID_00000025414216646547935430000017236950317042088852_);fill:none;}
	.st30{clip-path:url(#SVGID_00000036963018917583880660000017978622973049633451_);}
	.st31{clip-path:url(#SVGID_00000183965643086255875190000010029307021681784967_);fill:none;}
	.st32{clip-path:url(#SVGID_00000172441987946873902050000007695123581814490527_);}
	.st33{clip-path:url(#SVGID_00000102525786487833425100000010695814517237540264_);fill:none;}
	.st34{clip-path:url(#SVGID_00000041288304713676791860000011120809332851091645_);}
	.st35{clip-path:url(#SVGID_00000087400083039115121860000013289856873437192101_);fill:none;}
	.st36{fill:#F4B2B5;}
	.st37{clip-path:url(#SVGID_00000139986254360222913240000011006164632308017843_);}
	.st38{clip-path:url(#SVGID_00000044163821373315827610000015030501735413211819_);}
	.st39{clip-path:url(#SVGID_00000106129799756912151260000003869768051163911353_);fill:none;}
	.st40{fill:#4AA143;}
	.st41{clip-path:url(#SVGID_00000159458652228489484380000013951034504628785282_);}
	.st42{clip-path:url(#SVGID_00000053546060048823330090000012598276832802255505_);}
	.st43{clip-path:url(#SVGID_00000060013708998353232130000015020748495805295766_);fill:none;}
	.st44{fill:#E16C41;}
	.st45{fill:#EACD52;}
</style>
<g>
	<g>
		<defs>
			<rect id="SVGID_1_" x="-654.2" y="-309.8" width="376" height="751.5"/>
		</defs>
		<clipPath id="SVGID_00000160890237133629582370000002985283032915076769_">
			<use xlink:href="#SVGID_1_"  style="overflow:visible;"/>
		</clipPath>
		
			<g id="zS8d8X_00000094595942493466179600000004215462044807982762_" style="clip-path:url(#SVGID_00000160890237133629582370000002985283032915076769_);">
			
				<image style="overflow:visible;opacity:0.7;" width="1380" height="1104" id="zS8d8X_00000104682061291293269040000017649855148280102846_" xlink:href="B920FA6F34E98227.jpg"  transform="matrix(1.1891 0 0 1.1891 -1219.2717 -366.2131)">
			</image>
		</g>
	</g>
</g>
<g>
	<g>
		<path class="st1" d="M7.8,11.1l-0.1,1.2c0,0.1,0,0.1,0.1,0.1c0,0,0,0,0.1,0c0,0,0.1,0,0.1,0c1.3-0.9,2.8-1.6,4.3-2
			c0.1,0,0.1-0.1,0.1-0.1l0.2-1.6c0-0.1,0-0.1-0.1-0.1c0,0-0.1,0-0.1,0L11.2,9c-0.5,0.2-0.7,0.2-0.8,0.2c-0.6,0-0.9-0.1-0.9-0.4
			c0-0.1,0-0.3,0.4-0.5c0.3-0.1,0.5-0.2,0.8-0.2c0.1,0,0.2,0,0.4,0.1c0.2,0.1,0.4,0.1,0.5,0.1c0.2,0,0.4-0.1,0.4-0.3
			c0-0.1,0-0.2-0.1-0.3c-0.1-0.3-0.4-0.6-0.7-0.8c-0.4-0.2-0.7-0.3-1.1-0.3c-0.6,0-1.1,0.3-1.5,1C8.3,8.1,8.1,8.7,8.1,9.3
			c0,0.3,0.1,0.5,0.3,0.8c0.1,0.1,0.2,0.2,0.4,0.3c-0.3,0.2-0.5,0.4-0.9,0.6C7.8,11.1,7.8,11.1,7.8,11.1"/>
		<path class="st1" d="M4.7,18.6c1,0.6,2.6,0.9,4.7,0.9H11c1,0,1.8-0.1,2.5-0.2c0.8-0.1,1.5-0.2,2.3-0.4c1.9-0.4,2.9-1.7,2.9-4.1
			c0-1.2,0-2.8,0.1-4.7V3.8V2.7c0-0.2,0-0.3-0.1-0.3c-0.1,0-0.2,0.1-0.4,0.2l-3.1,2.2c-0.1,0.1-0.2,0.3-0.2,0.4c0,0,0,0,0,0
			c-0.1,0.6,0.3,7.3,0.3,7.3c0,1-0.8,2-1.7,2l-1.3,0.1c-0.7,0-1.5,0-2.6,0c-2.1,0-3.6-0.3-4.3-0.9c-0.4-0.4-0.6-1-0.6-1.8
			c0-0.7-0.2-1.1-0.6-1.1c-0.4,0-0.8,0.5-1.1,1.4c-0.3,0.8-0.4,1.6-0.4,2.4C2.7,16.5,3.4,17.8,4.7,18.6"/>
		<path class="st1" d="M52,9.4c1,0,1.8-0.8,1.8-1.8S53,5.8,52,5.8c-1,0-1.8,0.8-1.8,1.8S51,9.4,52,9.4"/>
		<path class="st1" d="M66.7,17c0.5-0.9,0.7-1.7,0.7-2.4c0-1.6-0.7-3.1-2.2-4.6c-1-1-2.4-2-4.4-3.1c-0.3-0.2-0.5-0.3-0.6-0.3
			c-0.2,0-0.4,0.2-0.5,0.5l-1.4,3.2l0.6,0.4c-0.7,0.3-1,1-1,1.9c0,0.4,0.1,0.7,0.2,1h-1.3v0h-0.2c-0.7,0-1.2-0.2-1.5-0.7
			c-0.1-0.1-0.2-0.6-0.4-1.3c-0.1-0.5-0.3-0.7-0.7-0.7c-0.4,0-0.6,0.2-0.7,0.7C53.2,12.5,53,13,53,13.1c-0.3,0.5-0.8,0.7-1.6,0.7v0
			H40.5h-0.7H26.5c-0.8-0.1-1.2-0.6-1.2-1.6V2.7c0-0.2,0-0.3-0.1-0.3c-0.1,0-0.2,0.1-0.4,0.2l-3.1,2.2c-0.2,0.1-0.2,0.4-0.2,0.7
			c0.1,0.7,0.2,2,0.3,4.1c0.1,1.9,0.1,3.5,0.1,4.7c0,2.8,1.3,4.2,4,4.2h0.5v0h13.4h0.7h10.2h0.7h0.4c1.1,0,2-0.5,2.5-1.4
			c0.6,1,1.4,1.4,2.4,1.4h0.2h0.6h1.3c0.9,0,1.8-0.5,2.8-1.4c1.4,0.9,2.4,1.4,3,1.4C65.4,18.6,66.1,18.1,66.7,17 M61.8,13.5
			c-0.2,0.2-0.5,0.3-0.7,0.3c-0.2,0-0.5-0.1-0.8-0.3c-0.4-0.2-0.5-0.4-0.5-0.6c0-0.2,0.2-0.5,0.5-0.6c0.3-0.2,0.6-0.2,0.8-0.2
			c0.2,0,0.5,0.1,0.7,0.3c0.2,0.2,0.4,0.4,0.4,0.7C62.2,13.1,62.1,13.3,61.8,13.5 M64.8,15.8c-0.2,0-0.5-0.1-0.9-0.3
			c-0.4-0.2-0.7-0.4-0.8-0.5c0.5-0.3,0.7-0.8,0.7-1.5v-0.2c1,0.7,1.5,1.3,1.5,1.8C65.3,15.5,65.2,15.8,64.8,15.8"/>
		<path class="st1" d="M12.9,41.8c0.2,0.2,0.4,0.3,0.6,0.3h2.8c0.2,0,0.4-0.1,0.6-0.2c0.2-0.2,0.2-0.3,0.2-0.6V29.3
			c0-0.2-0.1-0.4-0.2-0.6c-0.1-0.1-0.3-0.2-0.6-0.2h-2.8c-0.2,0-0.4,0.1-0.6,0.2c-0.2,0.2-0.2,0.3-0.2,0.6v4.1h-5v-4.1
			c0-0.2-0.1-0.4-0.2-0.6c-0.2-0.2-0.3-0.2-0.6-0.2H4c-0.2,0-0.4,0.1-0.6,0.2c-0.2,0.2-0.2,0.3-0.2,0.6v11.9c0,0.2,0.1,0.4,0.3,0.6
			C3.6,41.9,3.8,42,4,42h2.8c0.2,0,0.4-0.1,0.6-0.3c0.2-0.2,0.2-0.4,0.2-0.6v-4.5h5v4.5C12.6,41.4,12.7,41.6,12.9,41.8"/>
		<path class="st1" d="M20.9,42h2.6c0.2,0,0.4-0.1,0.6-0.2c0.1-0.2,0.2-0.3,0.2-0.5v-5.8c0-0.1,0-0.2,0-0.3c0-0.1,0-0.1,0.1-0.1
			c0.1,0,0.2,0.1,0.4,0.3c2,2.1,3.5,3.8,4.6,4.9c1,1.1,1.6,1.7,1.7,1.7c0.1,0.1,0.2,0.1,0.3,0.1c0.1,0,0.3,0,0.5,0H34
			c0.3,0,0.5-0.1,0.7-0.3c0.2-0.2,0.3-0.4,0.3-0.7V29.5c0-0.3-0.1-0.5-0.3-0.7c-0.2-0.2-0.5-0.3-0.7-0.3h-2.5
			c-0.2,0-0.4,0.1-0.5,0.2c-0.2,0.2-0.2,0.3-0.2,0.6V35c0,0.2,0,0.3-0.1,0.3c0,0-0.1,0-0.2-0.1c-0.8-0.8-1.8-1.9-3.2-3.3
			c-1.3-1.4-2.3-2.4-2.9-3c-0.2-0.2-0.4-0.3-0.5-0.4c-0.1-0.1-0.3-0.1-0.5-0.1h-2.4c-0.3,0-0.5,0.1-0.7,0.3C20.1,29,20,29.2,20,29.5
			v11.4c0,0.3,0.1,0.5,0.3,0.7C20.4,41.9,20.6,42,20.9,42"/>
		<path class="st1" d="M51.3,40.2l-4.3-10.9c-0.1-0.2-0.2-0.4-0.4-0.6c-0.2-0.2-0.5-0.3-0.8-0.3h-1.2h-1.6c-0.3,0-0.6,0.1-0.8,0.2
			c-0.2,0.1-0.4,0.4-0.5,0.6l-4.3,10.9c0,0-0.1,0.1-0.1,0.4C37,40.8,37,41,37,41.2c0,0.4,0.3,0.7,0.8,0.8h2.7c0.3,0,0.5,0,0.7-0.1
			c0.2-0.1,0.3-0.2,0.3-0.4l0.6-1.9h4.3l0.6,1.9c0.1,0.2,0.2,0.3,0.4,0.4C47.5,42,47.8,42,48,42h2.7c0.5-0.1,0.8-0.3,0.8-0.8
			c0-0.2,0-0.4-0.1-0.6C51.3,40.4,51.3,40.3,51.3,40.2 M44.4,36.2h-1.8l1.5-4.6l1.5,4.6H44.4z"/>
		<path class="st1" d="M63,34.3l3.3-4.5c0.2-0.2,0.2-0.4,0.2-0.6c0-0.3-0.1-0.4-0.4-0.5h0l-3,0c-0.5,0-0.9,0.1-1.2,0.4l-4.3,5.4
			v-5.1c0-0.2-0.1-0.4-0.2-0.5c-0.1-0.1-0.3-0.2-0.5-0.2h-2.8c-0.2,0-0.4,0.1-0.5,0.2c-0.1,0.1-0.2,0.3-0.2,0.5v11.8
			c0,0.2,0.1,0.4,0.2,0.6c0.1,0.1,0.3,0.2,0.6,0.2H57c0.1,0,0.3,0,0.4-0.1c0.1-0.1,0.2-0.2,0.3-0.3l2.7-3.7l2.6,3.7
			c0.1,0.2,0.3,0.3,0.5,0.3l3.5,0c0.2,0,0.3-0.1,0.4-0.2c0.1-0.1,0.1-0.3,0.1-0.5c0-0.2,0-0.3-0.1-0.4L63,34.3z"/>
		<rect x="3.1" y="45.5" class="st1" width="64.4" height="2.3"/>
		<rect x="3.6" y="22.6" class="st1" width="63.8" height="2.3"/>
	</g>
</g>
</svg>
