<svg width="61" height="47" viewBox="0 0 61 47" fill="none" xmlns="http://www.w3.org/2000/svg">
<path d="M4.84054 8.96868L4.76982 10.1922C4.7686 10.2125 4.77122 10.2329 4.7775 10.252C4.78378 10.2712 4.7936 10.2887 4.80634 10.3036C4.81908 10.3184 4.83447 10.3302 4.85156 10.3383C4.86865 10.3463 4.88708 10.3505 4.90569 10.3504C4.93289 10.3506 4.95949 10.3417 4.98195 10.3249C6.22402 9.41409 7.58886 8.72143 9.0269 8.27212C9.05207 8.26422 9.07463 8.24857 9.09189 8.22704C9.10915 8.20551 9.12039 8.17901 9.12427 8.1507L9.34639 6.552C9.34987 6.52651 9.34731 6.50048 9.33895 6.47638C9.33059 6.45229 9.3167 6.43094 9.29864 6.41439C9.28055 6.39762 9.25868 6.38645 9.23531 6.38204C9.21194 6.37763 9.18792 6.38013 9.16573 6.38929L8.0662 6.81912C7.83338 6.92755 7.58751 6.99883 7.33614 7.03079C6.79082 7.03079 6.51389 6.90249 6.51389 6.65034C6.51389 6.56939 6.5139 6.33141 6.9252 6.14847C7.17041 6.03745 7.43356 5.98156 7.69895 5.98415C7.82429 5.991 7.94851 6.01355 8.06916 6.05134C8.21131 6.09523 8.35768 6.12076 8.50527 6.12743C8.55116 6.13432 8.59789 6.13008 8.64212 6.115C8.68634 6.09992 8.72699 6.07438 8.76116 6.04019C8.79534 6.00599 8.82221 5.96398 8.83985 5.91715C8.8575 5.87032 8.86549 5.81983 8.86327 5.76924C8.85701 5.64595 8.82937 5.52508 8.78182 5.41307C8.6352 5.05856 8.38751 4.76548 8.07583 4.5777C7.77144 4.37165 7.42163 4.25975 7.06366 4.25391C6.76015 4.27085 6.46604 4.37461 6.21071 4.5548C5.95539 4.735 5.74781 4.98532 5.60873 5.28073C5.27698 5.80819 5.09407 6.43047 5.08265 7.07047C5.08662 7.36702 5.18419 7.65298 5.35883 7.87994C5.45138 8.01313 5.56938 8.12266 5.70461 8.20089C5.42177 8.40456 5.14984 8.62577 4.89014 8.86344C4.87561 8.87623 4.86369 8.89219 4.85515 8.91032C4.84661 8.92844 4.84163 8.94832 4.84054 8.96868V8.96868Z" fill="black"/>
<path d="M1.94584 16.6213C2.92024 17.2098 4.39899 17.5041 6.3821 17.5044H7.81372C8.61258 17.511 9.41077 17.4521 10.2016 17.3283C10.9185 17.2528 11.6304 17.1288 12.3333 16.9572C14.1429 16.499 15.0729 15.1845 15.0729 12.7318C15.0729 11.5043 15.1132 9.89133 15.1939 7.89274V0.2647C15.1939 0.0882352 15.1502 0 15.0629 0C14.9103 0.0405911 14.7686 0.119905 14.6493 0.231511L11.7154 2.49155C11.6586 2.55061 11.6138 2.62198 11.5838 2.70109C11.5538 2.7802 11.5392 2.8653 11.541 2.95093V2.95619C11.4107 3.54305 11.8276 10.4608 11.8276 10.4608C11.8276 11.5337 11.0542 12.4905 10.1871 12.4905L8.96545 12.5881C8.32387 12.582 7.54679 12.5549 6.53352 12.5549C4.52351 12.5549 3.18581 12.2311 2.52041 11.5835C2.12354 11.2017 1.92869 10.5698 1.93585 9.68774C1.94251 8.93844 1.75087 8.56366 1.36091 8.5634C0.977861 8.5634 0.648619 9.02695 0.37318 9.95407C0.127266 10.7658 0.00128923 11.6152 1.75757e-06 12.4703C-0.00123229 14.4503 0.647379 15.8339 1.94584 16.6213Z" fill="black"/>
<path d="M46.4238 7.17192C46.7533 7.17192 47.0754 7.0651 47.3493 6.86497C47.6233 6.66485 47.8368 6.3804 47.9629 6.0476C48.089 5.7148 48.122 5.34859 48.0577 4.99529C47.9934 4.64199 47.8348 4.31746 47.6018 4.06275C47.3688 3.80803 47.0719 3.63457 46.7488 3.56429C46.4256 3.49402 46.0906 3.53009 45.7862 3.66794C45.4818 3.80579 45.2216 4.03923 45.0386 4.33874C44.8555 4.63826 44.7578 4.99039 44.7578 5.35061C44.7578 5.83365 44.9333 6.29691 45.2458 6.63847C45.5582 6.98003 45.9819 7.17192 46.4238 7.17192V7.17192Z" fill="black"/>
<path d="M60.2839 14.9961C60.6843 14.2482 60.9094 13.4037 60.9392 12.5378C60.9392 10.8697 60.2604 9.30475 58.903 7.84284C57.6641 6.60458 56.285 5.54511 54.7995 4.69036C54.616 4.55443 54.4109 4.45724 54.1946 4.40381C54.0199 4.40381 53.8586 4.58756 53.7108 4.95506L52.3595 8.29494L52.9544 8.71343C52.3023 9.0445 51.9763 9.69478 51.9763 10.6643C51.9674 11.0074 52.0442 11.3467 52.1984 11.6457H51.0189V11.6563H50.8375C50.1383 11.6563 49.6611 11.4202 49.4059 10.948C49.2557 10.5295 49.144 10.0956 49.0727 9.65281C48.9787 9.18062 48.7704 8.9444 48.4478 8.94413C48.1117 8.94413 47.8798 9.18035 47.7522 9.65281C47.6518 10.0963 47.5169 10.5296 47.349 10.948C47.0681 11.418 46.5707 11.654 45.8567 11.6559V11.6461H22.4463C21.6688 11.5919 21.276 11.0633 21.276 10.0474V0.335006C21.276 0.158541 21.2323 0.0703125 21.145 0.0703125C20.9925 0.110819 20.8509 0.19014 20.7318 0.301817L17.7979 2.56186C17.7154 2.65749 17.6571 2.77497 17.6288 2.90272C17.6005 3.03047 17.6031 3.16408 17.6365 3.29038C17.7305 3.97412 17.8213 5.37032 17.9089 7.47899C17.9894 9.47785 18.0296 11.0908 18.0296 12.318C18.0296 15.1989 19.29 16.6392 21.8106 16.639H22.3149V16.6612H46.1988C46.6837 16.6852 47.1651 16.5594 47.5877 16.2981C48.0103 16.0368 48.357 15.6507 48.5881 15.1839C48.7996 15.6349 49.1222 16.0122 49.5195 16.2732C49.9168 16.5343 50.3729 16.6687 50.8364 16.6612H52.8326C53.6456 16.6612 54.5294 16.1799 55.4841 15.2171C56.788 16.1796 57.7223 16.6609 58.287 16.6612C59.0735 16.6601 59.7392 16.1051 60.2839 14.9961ZM55.6932 11.3693C55.5065 11.5375 55.2746 11.6344 55.0328 11.6453C54.7492 11.6167 54.4777 11.5062 54.2461 11.3252C53.9033 11.0975 53.7319 10.8808 53.7319 10.6752C53.7319 10.425 53.8865 10.2046 54.1957 10.0138C54.4346 9.86096 54.7053 9.77737 54.9821 9.77101C55.2407 9.78088 55.4883 9.88811 55.6829 10.0746C55.786 10.1515 55.8712 10.2538 55.9316 10.3733C55.992 10.4928 56.0259 10.6262 56.0305 10.7626C56.0227 10.886 55.9878 11.0054 55.9288 11.1109C55.8697 11.2164 55.7883 11.3047 55.6914 11.3685L55.6932 11.3693ZM58.5313 13.739C58.2265 13.687 57.9347 13.5668 57.6743 13.3861C57.3942 13.2292 57.1277 13.045 56.8779 12.8357C57.1088 12.6817 57.2948 12.4592 57.4145 12.1941C57.5341 11.9289 57.5823 11.6321 57.5536 11.3381V11.1176C58.5146 11.8596 58.9953 12.4769 58.9955 12.9696C58.9941 13.482 58.8387 13.7382 58.5294 13.7382L58.5313 13.739Z" fill="black"/>
<path d="M9.63002 40.4847C9.69744 40.5651 9.77918 40.6296 9.87022 40.6742C9.96125 40.7188 10.0597 40.7426 10.1594 40.7442H12.8053C12.9038 40.7459 13.0016 40.7254 13.0925 40.6842C13.1835 40.643 13.2658 40.5819 13.3344 40.5046C13.4065 40.4265 13.4631 40.3331 13.5008 40.2302C13.5385 40.1272 13.5565 40.0168 13.5535 39.906V27.6178C13.5619 27.5081 13.5483 27.3977 13.5137 27.2943C13.479 27.1909 13.4242 27.0971 13.3531 27.0192C13.2819 26.9413 13.1961 26.8813 13.1015 26.8433C13.007 26.8054 12.9061 26.7904 12.8057 26.7994H10.1598C10.0584 26.7964 9.95752 26.8161 9.86335 26.8573C9.76919 26.8985 9.68374 26.9604 9.61225 27.039C9.54152 27.114 9.48558 27.2041 9.44789 27.3036C9.4102 27.4032 9.39154 27.5101 9.39308 27.6178V31.8469H4.70285V27.6178C4.70439 27.5101 4.68573 27.4032 4.64804 27.3036C4.61035 27.2041 4.55441 27.114 4.48368 27.039C4.41225 26.9604 4.32686 26.8986 4.23276 26.8574C4.13866 26.8162 4.03784 26.7964 3.93651 26.7994H1.29023C1.18884 26.7964 1.08796 26.8161 0.993803 26.8574C0.899641 26.8986 0.814183 26.9604 0.742682 27.039C0.672006 27.1141 0.616109 27.2041 0.578421 27.3037C0.540732 27.4032 0.522049 27.5101 0.523518 27.6178V39.9064C0.535005 40.1246 0.619479 40.3305 0.760861 40.485C0.902243 40.6395 1.09066 40.7317 1.29023 40.7442H3.93651C4.03779 40.7445 4.13802 40.7216 4.23068 40.6769C4.32335 40.6322 4.40639 40.5668 4.47443 40.4847C4.54569 40.4096 4.60258 40.3198 4.6418 40.2204C4.68101 40.1211 4.70177 40.0142 4.70285 39.906V35.2782H9.39271V39.906C9.39408 40.015 9.41583 40.1226 9.45664 40.2222C9.49745 40.3217 9.55645 40.4111 9.63002 40.4847Z" fill="black"/>
<path d="M17.1449 40.6833H19.5716C19.6689 40.6856 19.7655 40.6655 19.8551 40.6242C19.9447 40.5829 20.0254 40.5214 20.0918 40.4437C20.1588 40.3705 20.2118 40.2835 20.2478 40.1877C20.2838 40.0918 20.302 39.9892 20.3013 39.8856V33.921C20.2986 33.8241 20.3047 33.7272 20.3194 33.6316C20.3212 33.6068 20.3316 33.5836 20.3486 33.5669C20.3655 33.5502 20.3877 33.5414 20.4105 33.5422C20.4599 33.5422 20.5754 33.6417 20.757 33.8409C22.655 36.0488 24.0966 37.718 25.0819 38.8483C26.0671 39.9786 26.5963 40.5637 26.6693 40.6036C26.7589 40.6537 26.8541 40.6906 26.9526 40.7133C27.1127 40.7384 27.2744 40.7486 27.4361 40.7436H29.4981C29.6205 40.7427 29.7414 40.7138 29.8529 40.6588C29.9645 40.6038 30.0643 40.5239 30.146 40.4243C30.2346 40.3313 30.3053 40.2197 30.3539 40.0964C30.4025 39.973 30.4279 39.8402 30.4289 39.7059V27.8362C30.4288 27.6979 30.4028 27.5611 30.3526 27.4341C30.3023 27.3072 30.2289 27.1928 30.1368 27.098C30.0472 26.9958 29.9395 26.9148 29.8203 26.8599C29.701 26.805 29.5728 26.7773 29.4434 26.7786H27.1258C27.0323 26.7803 26.9401 26.8034 26.8552 26.8464C26.7703 26.8894 26.6947 26.9514 26.6331 27.0284C26.5639 27.1025 26.5088 27.191 26.4712 27.2886C26.4336 27.3862 26.4141 27.4911 26.4139 27.597V33.5422C26.4139 33.7548 26.3769 33.8611 26.3028 33.8611C26.23 33.8447 26.1615 33.8106 26.1022 33.7615C25.3842 32.9631 24.3927 31.8426 23.1275 30.3998L20.3905 27.2777C20.264 27.1144 20.1129 26.9761 19.9437 26.8685C19.7902 26.8011 19.6254 26.7705 19.4602 26.7786H17.1974C17.0747 26.7801 16.9537 26.8113 16.8432 26.87C16.7328 26.9287 16.6357 27.0135 16.5588 27.1182C16.3814 27.3305 16.2837 27.6081 16.2852 27.8957V39.6464C16.2819 39.916 16.3733 40.1768 16.5407 40.3749C16.6146 40.4716 16.707 40.5493 16.8114 40.6026C16.9158 40.6559 17.0297 40.6834 17.1449 40.6833V40.6833Z" fill="black"/>
<path d="M45.7431 38.9069L41.6556 27.675C41.5765 27.427 41.43 27.2112 41.2357 27.0566C41.0073 26.8759 40.7328 26.7783 40.4509 26.7773H37.8224C37.5537 26.7831 37.2917 26.8695 37.0649 27.0271C36.8481 27.1852 36.6797 27.4108 36.5814 27.6746L32.5317 38.9069C32.5196 38.9338 32.48 39.0569 32.4128 39.276C32.3466 39.4913 32.3127 39.717 32.3125 39.9442C32.3125 40.3964 32.5497 40.6625 33.024 40.7423H35.5607C35.7816 40.7505 36.001 40.699 36.1994 40.5926C36.2784 40.5499 36.3484 40.4898 36.4049 40.4159C36.4614 40.342 36.5033 40.2561 36.5277 40.1636L37.0934 38.1686H41.1624L41.7281 40.1636C41.7533 40.2572 41.7965 40.3438 41.8547 40.4178C41.9129 40.4917 41.9849 40.5513 42.0657 40.5926C42.2677 40.6984 42.4898 40.7497 42.7136 40.7423H45.2137C45.7001 40.6614 45.9435 40.382 45.9437 39.9041C45.9416 39.7041 45.9109 39.5057 45.8527 39.316C45.7914 39.1094 45.7549 38.973 45.7431 38.9069ZM39.3203 34.7976H37.6413L39.0644 30.1095L40.506 34.7976H39.3203Z" fill="black"/>
<path d="M56.8317 32.8438L59.9337 28.2351C60.0655 28.0523 60.1421 27.8293 60.1529 27.5969C60.1587 27.5348 60.1527 27.4721 60.1353 27.4127C60.1179 27.3533 60.0895 27.2985 60.0518 27.2517C60.0141 27.2048 59.968 27.167 59.9164 27.1405C59.8647 27.114 59.8086 27.0995 59.7516 27.0978H59.7697L56.9594 27.078C56.761 27.0377 56.5565 27.0532 56.365 27.1229C56.1736 27.1926 56.0014 27.3144 55.8647 27.4766L51.832 33.083V27.7964C51.8308 27.5904 51.7554 27.3931 51.6222 27.2475C51.4889 27.1018 51.3085 27.0194 51.1201 27.0181H48.5108C48.4164 27.0143 48.3223 27.0318 48.2343 27.0696C48.1464 27.1073 48.0665 27.1645 47.9997 27.2376C47.9329 27.3106 47.8805 27.398 47.846 27.4941C47.8114 27.5902 47.7954 27.6932 47.7989 27.7964V39.9656C47.7914 40.0698 47.8047 40.1746 47.8379 40.2727C47.871 40.3708 47.9232 40.4599 47.9909 40.5339C48.0585 40.6078 48.1401 40.6648 48.2298 40.701C48.3196 40.7372 48.4154 40.7517 48.5108 40.7435H51.1201C51.2504 40.7443 51.379 40.7102 51.4944 40.6439C51.6034 40.5846 51.6904 40.486 51.7405 40.3646L54.3139 36.5545L56.7573 40.3849C56.8086 40.4652 56.8769 40.5307 56.9564 40.5759C57.0359 40.621 57.1242 40.6445 57.2138 40.6443L60.4983 40.6245C60.5696 40.6184 60.6388 40.5946 60.7004 40.5549C60.7621 40.5152 60.8146 40.4606 60.8541 40.3954C60.948 40.246 60.996 40.0678 60.9911 39.8866C60.9919 39.7318 60.9535 39.5798 60.88 39.4475L56.8317 32.8438Z" fill="black"/>
<path d="M61.0003 44.3828H0.375V46.7011H61.0003V44.3828Z" fill="black"/>
<path d="M61.0009 20.7695H0.910156V23.0879H61.0009V20.7695Z" fill="black"/>
</svg>
