<svg width="113" height="80" viewBox="0 0 113 80" fill="none" xmlns="http://www.w3.org/2000/svg">
<path d="M8.96357 15.5073L8.83257 17.5786C8.83031 17.6129 8.83516 17.6474 8.84679 17.6799C8.85843 17.7123 8.87661 17.742 8.90021 17.7671C8.92381 17.7922 8.95232 17.8122 8.98398 17.8259C9.01564 17.8395 9.04978 17.8466 9.08426 17.8465C9.13465 17.8468 9.18392 17.8317 9.22553 17.8033C11.5264 16.2613 14.0547 15.0887 16.7186 14.3281C16.7653 14.3147 16.807 14.2882 16.839 14.2518C16.871 14.2153 16.8918 14.1705 16.899 14.1225L17.3105 11.4161C17.3169 11.3729 17.3122 11.3289 17.2967 11.2881C17.2812 11.2473 17.2555 11.2111 17.222 11.1831C17.1885 11.1547 17.148 11.1358 17.1047 11.1284C17.0614 11.1209 17.0169 11.1251 16.9758 11.1406L14.939 11.8683C14.5077 12.0519 14.0522 12.1725 13.5866 12.2266C12.5764 12.2266 12.0634 12.0094 12.0634 11.5826C12.0634 11.4455 12.0634 11.0427 12.8253 10.733C13.2796 10.545 13.767 10.4504 14.2587 10.4548C14.4909 10.4664 14.721 10.5045 14.9445 10.5685C15.2078 10.6428 15.4789 10.686 15.7523 10.6973C15.8374 10.709 15.9239 10.7018 16.0058 10.6763C16.0878 10.6508 16.1631 10.6075 16.2264 10.5496C16.2897 10.4917 16.3394 10.4206 16.3721 10.3414C16.4048 10.2621 16.4196 10.1766 16.4155 10.091C16.4039 9.88223 16.3527 9.67761 16.2646 9.48799C15.993 8.88784 15.5342 8.39168 14.9568 8.07378C14.393 7.72497 13.7449 7.53553 13.0818 7.52563C12.5196 7.55432 11.9747 7.72997 11.5018 8.03502C11.0288 8.34007 10.6442 8.76385 10.3866 9.26394C9.77207 10.1569 9.43323 11.2103 9.41208 12.2938C9.41943 12.7958 9.60016 13.2799 9.92369 13.6642C10.0951 13.8896 10.3137 14.0751 10.5642 14.2075C10.0403 14.5523 9.53653 14.9268 9.05545 15.3291C9.02854 15.3508 9.00646 15.3778 8.99064 15.4085C8.97481 15.4392 8.96559 15.4728 8.96357 15.5073Z" fill="white"/>
<path d="M3.60459 28.4634C5.40963 29.4597 8.14896 29.958 11.8226 29.9585H14.4746C15.9545 29.9696 17.4331 29.8699 18.898 29.6604C20.226 29.5325 21.5448 29.3226 22.8469 29.0321C26.1991 28.2565 27.9218 26.031 27.9218 21.8789C27.9218 19.8009 27.9966 17.0703 28.1461 13.6869V0.773307C28.1461 0.474569 28.0652 0.325195 27.9033 0.325195C27.6207 0.393912 27.3583 0.528184 27.1373 0.717122L21.7023 4.54316C21.5972 4.64313 21.5141 4.76395 21.4585 4.89787C21.4029 5.0318 21.3759 5.17587 21.3793 5.32083V5.32974C21.1379 6.32325 21.9101 18.0343 21.9101 18.0343C21.9101 19.8507 20.4774 21.4705 18.8713 21.4705L16.6081 21.6356C15.4196 21.6253 13.9801 21.5794 12.1031 21.5794C8.37963 21.5794 5.90158 21.0313 4.66896 19.935C3.93378 19.2887 3.57282 18.2188 3.58608 16.7256C3.59842 15.4571 3.24341 14.8227 2.52103 14.8222C1.81145 14.8222 1.20154 15.607 0.691302 17.1765C0.235754 18.5507 0.00238824 19.9886 3.25582e-06 21.4362C-0.00228276 24.7881 1.19924 27.1305 3.60459 28.4634Z" fill="white"/>
<path d="M85.9885 12.4662C86.5988 12.4662 87.1955 12.2853 87.703 11.9465C88.2105 11.6077 88.6061 11.1262 88.8396 10.5628C89.0732 9.9994 89.1343 9.37944 89.0153 8.78134C88.8962 8.18324 88.6023 7.63385 88.1707 7.20264C87.7391 6.77143 87.1892 6.47778 86.5905 6.35881C85.9919 6.23984 85.3714 6.3009 84.8075 6.53426C84.2435 6.76763 83.7616 7.16283 83.4225 7.66987C83.0833 8.17692 82.9023 8.77305 82.9023 9.38287C82.9023 10.2006 83.2275 10.9849 83.8062 11.5631C84.385 12.1413 85.17 12.4662 85.9885 12.4662Z" fill="white"/>
<path d="M111.666 25.7118C112.408 24.4457 112.825 23.0161 112.88 21.5501C112.88 18.7262 111.623 16.0769 109.108 13.602C106.813 11.5057 104.258 9.71216 101.507 8.26515C101.167 8.03503 100.787 7.8705 100.386 7.78005C100.062 7.78005 99.7635 8.09112 99.4896 8.71326L96.9864 14.3673L98.0885 15.0758C96.8806 15.6363 96.2766 16.7371 96.2766 18.3784C96.2602 18.9593 96.4024 19.5337 96.6881 20.0399H94.5031V20.0577H94.1671C92.8718 20.0577 91.9878 19.6581 91.5151 18.8587C91.2367 18.1502 91.03 17.4157 90.8979 16.6661C90.7237 15.8667 90.3378 15.4668 89.7402 15.4664C89.1175 15.4664 88.688 15.8663 88.4516 16.6661C88.2657 17.4169 88.0158 18.1504 87.7047 18.8587C87.1844 19.6544 86.263 20.0539 84.9403 20.0571V20.0406H41.5734C40.1332 19.9488 39.4056 19.054 39.4056 17.3342V0.891948C39.4056 0.593211 39.3247 0.443848 39.1628 0.443848C38.8804 0.512421 38.6181 0.646705 38.3975 0.835763L32.9625 4.6618C32.8097 4.8237 32.7017 5.02258 32.6493 5.23885C32.5969 5.45512 32.6017 5.68131 32.6635 5.89512C32.8376 7.05261 33.0059 9.41626 33.1682 12.986C33.3173 16.3699 33.3918 19.1006 33.3918 21.178C33.3918 26.0551 35.7265 28.4934 40.3959 28.493H41.33V28.5306H85.574C86.4724 28.5713 87.3641 28.3582 88.1469 27.9159C88.9297 27.4736 89.572 26.8199 90.0001 26.0298C90.3919 26.7931 90.9895 27.4319 91.7255 27.8738C92.4615 28.3157 93.3065 28.5432 94.165 28.5306H97.8629C99.3689 28.5306 101.006 27.7157 102.775 26.0859C105.19 27.7153 106.921 28.5302 107.967 28.5306C109.424 28.5288 110.657 27.5892 111.666 25.7118ZM103.162 19.572C102.816 19.8567 102.387 20.0208 101.939 20.0392C101.413 19.9908 100.91 19.8038 100.481 19.4973C99.8462 19.1117 99.5287 18.7449 99.5287 18.3969C99.5287 17.9734 99.8151 17.6002 100.388 17.2773C100.831 17.0185 101.332 16.877 101.845 16.8662C102.324 16.8829 102.782 17.0644 103.143 17.3801C103.334 17.5103 103.492 17.6836 103.604 17.8859C103.715 18.0882 103.778 18.3139 103.787 18.5449C103.772 18.7537 103.708 18.956 103.598 19.1345C103.489 19.3131 103.338 19.4627 103.159 19.5706L103.162 19.572ZM108.419 23.5837C107.855 23.4956 107.314 23.2922 106.832 22.9862C106.313 22.7206 105.819 22.4088 105.357 22.0543C105.784 21.7937 106.129 21.417 106.351 20.9682C106.572 20.5193 106.662 20.0168 106.608 19.5192V19.1458C108.389 20.4019 109.279 21.447 109.279 22.2811C109.277 23.1486 108.989 23.5823 108.416 23.5823L108.419 23.5837Z" fill="white"/>
<path d="M17.8344 68.8602C17.9593 68.9963 18.1107 69.1055 18.2794 69.181C18.448 69.2565 18.6303 69.2968 18.8151 69.2994H23.7166C23.899 69.3022 24.08 69.2677 24.2486 69.1979C24.4171 69.1282 24.5696 69.0247 24.6966 68.8938C24.8301 68.7617 24.9351 68.6036 25.0049 68.4292C25.0748 68.2549 25.108 68.0681 25.1026 67.8804V47.0777C25.118 46.892 25.0928 46.7051 25.0287 46.5301C24.9646 46.3551 24.8631 46.1962 24.7312 46.0643C24.5994 45.9325 24.4404 45.8309 24.2653 45.7666C24.0902 45.7024 23.9032 45.677 23.7172 45.6923H18.8158C18.628 45.6872 18.4411 45.7206 18.2667 45.7903C18.0922 45.8601 17.9339 45.9648 17.8015 46.0979C17.6705 46.2249 17.5669 46.3774 17.497 46.5459C17.4272 46.7144 17.3927 46.8954 17.3955 47.0777V54.2372H8.70704V47.0777C8.70988 46.8954 8.67533 46.7144 8.6055 46.5459C8.53568 46.3774 8.43206 46.2249 8.30104 46.0979C8.16871 45.9648 8.01053 45.8601 7.83621 45.7904C7.6619 45.7206 7.47513 45.6873 7.28742 45.6923H2.38529C2.19748 45.6872 2.01061 45.7206 1.83618 45.7904C1.66175 45.8601 1.50344 45.9648 1.37099 46.0979C1.24006 46.225 1.13651 46.3774 1.0667 46.5459C0.996881 46.7144 0.962272 46.8954 0.964993 47.0777V67.8811C0.986272 68.2504 1.14276 68.5991 1.40466 68.8606C1.66656 69.1221 2.0156 69.2783 2.38529 69.2994H7.28742C7.47504 69.3 7.6607 69.2612 7.83236 69.1856C8.00402 69.1099 8.15786 68.9991 8.2839 68.8602C8.41591 68.7331 8.5213 68.581 8.59394 68.4128C8.66658 68.2445 8.70503 68.0636 8.70704 67.8804V60.0461H17.3948V67.8804C17.3973 68.065 17.4376 68.2472 17.5132 68.4157C17.5888 68.5842 17.6981 68.7355 17.8344 68.8602Z" fill="white"/>
<path d="M31.7606 69.198H36.256C36.4361 69.2019 36.6151 69.1677 36.7811 69.0978C36.9471 69.028 37.0965 68.9238 37.2196 68.7923C37.3437 68.6684 37.442 68.5211 37.5086 68.3589C37.5752 68.1966 37.6089 68.0228 37.6077 67.8475V57.75C37.6028 57.586 37.614 57.4219 37.6413 57.2601C37.6445 57.218 37.6638 57.1788 37.6952 57.1505C37.7267 57.1223 37.7678 57.1073 37.81 57.1087C37.9015 57.1087 38.1155 57.2772 38.452 57.6143C41.9678 61.3522 44.6384 64.1779 46.4635 66.0914C48.2887 68.0048 49.2689 68.9954 49.4043 69.063C49.5701 69.1478 49.7466 69.2102 49.9289 69.2487C50.2255 69.2912 50.5251 69.3084 50.8246 69.3001H54.6445C54.8712 69.2984 55.095 69.2495 55.3017 69.1564C55.5084 69.0633 55.6933 68.9281 55.8446 68.7595C56.0088 68.6019 56.1397 68.4132 56.2297 68.2043C56.3197 67.9954 56.3669 67.7706 56.3686 67.5433V47.4491C56.3684 47.2149 56.3203 46.9833 56.2272 46.7684C56.1342 46.5534 55.9982 46.3598 55.8275 46.1993C55.6616 46.0264 55.4621 45.8893 55.2412 45.7963C55.0203 45.7033 54.7827 45.6565 54.543 45.6587H50.2499C50.0766 45.6615 49.9058 45.7005 49.7486 45.7734C49.5913 45.8462 49.4512 45.9511 49.337 46.0814C49.2088 46.207 49.1069 46.3567 49.0372 46.522C48.9675 46.6873 48.9314 46.8648 48.931 47.0441V57.1087C48.931 57.4687 48.8625 57.6486 48.7253 57.6486C48.5904 57.6208 48.4634 57.5632 48.3536 57.4801C47.0236 56.1284 45.1868 54.2314 42.8432 51.789L37.773 46.5035C37.5386 46.2272 37.2587 45.9929 36.9452 45.8108C36.661 45.6967 36.3556 45.6449 36.0496 45.6587H31.858C31.6305 45.6611 31.4064 45.7139 31.2018 45.8133C30.9972 45.9127 30.8173 46.0563 30.6749 46.2336C30.3462 46.5929 30.1652 47.0629 30.1681 47.5498V67.4425C30.1619 67.899 30.3312 68.3405 30.6413 68.6759C30.7782 68.8395 30.9494 68.971 31.1428 69.0613C31.3362 69.1515 31.5471 69.1981 31.7606 69.198Z" fill="white"/>
<path d="M84.7273 66.194L77.1553 47.1796C77.0089 46.7596 76.7375 46.3944 76.3776 46.1327C75.9545 45.8268 75.4459 45.6615 74.9237 45.6599H70.0545C69.5568 45.6696 69.0714 45.8158 68.6513 46.0827C68.2497 46.3503 67.9377 46.7322 67.7557 47.179L60.2536 66.194C60.2312 66.2397 60.1579 66.448 60.0335 66.8189C59.9108 67.1835 59.8481 67.5655 59.8477 67.9501C59.8477 68.7157 60.287 69.1661 61.1658 69.3013H65.8649C66.2741 69.3151 66.6804 69.228 67.0479 69.0478C67.1943 68.9756 67.3239 68.8737 67.4287 68.7487C67.5334 68.6236 67.6109 68.4781 67.6562 68.3215L68.7041 64.9442H76.2418L77.2897 68.3215C77.3365 68.4799 77.4164 68.6266 77.5242 68.7519C77.6321 68.8771 77.7653 68.9779 77.9152 69.0478C78.2892 69.2268 78.7007 69.3138 79.1153 69.3013H83.7466C84.6477 69.1642 85.0985 68.6913 85.099 67.8823C85.095 67.5437 85.0381 67.2078 84.9303 66.8867C84.8169 66.5368 84.7492 66.3059 84.7273 66.194ZM72.8292 59.2374H69.7191L72.3553 51.301L75.0259 59.2374H72.8292Z" fill="white"/>
<path d="M105.28 55.928L111.026 48.1259C111.27 47.8165 111.412 47.4389 111.432 47.0454C111.443 46.9403 111.432 46.8342 111.399 46.7336C111.367 46.6331 111.314 46.5403 111.245 46.461C111.175 46.3817 111.09 46.3176 110.994 46.2728C110.898 46.228 110.794 46.2034 110.689 46.2005H110.722L105.516 46.167C105.149 46.0988 104.77 46.125 104.415 46.243C104.06 46.3611 103.742 46.5671 103.488 46.8419L96.0179 56.3329V47.3831C96.0157 47.0344 95.8761 46.7005 95.6292 46.4539C95.3823 46.2072 95.0481 46.0677 94.699 46.0656H89.8655C89.6906 46.0591 89.5162 46.0888 89.3533 46.1527C89.1904 46.2167 89.0424 46.3135 88.9186 46.4371C88.7949 46.5608 88.698 46.7086 88.634 46.8714C88.57 47.0342 88.5403 47.2084 88.5467 47.3831V67.9844C88.5329 68.1609 88.5575 68.3383 88.6189 68.5044C88.6803 68.6705 88.777 68.8213 88.9023 68.9465C89.0277 69.0716 89.1787 69.1682 89.345 69.2294C89.5112 69.2907 89.6888 69.3152 89.8655 69.3013H94.699C94.9405 69.3028 95.1786 69.2449 95.3924 69.1327C95.5944 69.0324 95.7555 68.8654 95.8485 68.66L100.615 62.2097L105.142 68.6942C105.237 68.8302 105.363 68.9411 105.511 69.0176C105.658 69.0941 105.821 69.1338 105.987 69.1334L112.072 69.0999C112.204 69.0896 112.332 69.0493 112.446 68.9821C112.56 68.9149 112.658 68.8225 112.731 68.712C112.905 68.4592 112.994 68.1575 112.985 67.8508C112.986 67.5887 112.915 67.3314 112.779 67.1074L105.28 55.928Z" fill="white"/>
<path d="M113.001 75.4634H0.695312V79.3881H113.001V75.4634Z" fill="white"/>
<path d="M112.999 35.4844H1.68359V39.4091H112.999V35.4844Z" fill="white"/>
</svg>
