<svg width="70" height="48" viewBox="0 0 70 48" fill="none" xmlns="http://www.w3.org/2000/svg">
<rect x="0.5" y="0.5" width="69" height="47" rx="5.5" fill="white" stroke="#D9D9D9"/>
<g clip-path="url(#clip0_116_26891)">
<path d="M30.3177 14H7V22.0007H30.3177V14Z" fill="#00A0DF"/>
<path d="M30.3177 25.0127H7V33.0134H30.3177V25.0127Z" fill="#81BB00"/>
<path d="M47.2148 20.6475L47.4078 19.3206H50.8695C50.8695 18.3919 50.8694 17.5294 50.7022 16.667C50.5349 15.8046 50.1488 15.4198 49.248 15.3402H47.9612L47.8454 15.234L48.0127 14.1328C48.7839 14.0794 49.5578 14.0794 50.329 14.1328C50.9968 14.2585 51.5961 14.6341 52.0117 15.1876C52.4273 15.741 52.6301 16.4333 52.581 17.1314C52.581 17.8081 52.581 18.4582 52.581 19.2543C53.6491 19.2543 54.6528 19.2543 55.6437 19.2543C55.7981 19.2543 56.0426 18.8695 56.0555 18.6572C56.0555 17.8213 56.0555 16.9855 56.0555 16.1363C56.001 15.6753 56.1262 15.2109 56.4038 14.8451C56.6813 14.4794 57.0883 14.2423 57.5353 14.1859C59.7101 13.5623 61.5375 14.5308 61.8978 16.5078C62.4254 19.4666 60.5209 21.2843 57.5869 20.6342C57.1624 20.5544 56.7313 20.5189 56.3 20.528H47.9869L47.2148 20.6475ZM57.7413 19.1481C58.0887 19.1481 58.3332 19.2543 58.5906 19.2808C58.7955 19.3513 59.0144 19.3674 59.227 19.3276C59.4396 19.2879 59.639 19.1936 59.807 19.0535C59.9749 18.9134 60.1059 18.7319 60.188 18.5259C60.27 18.3198 60.3004 18.0958 60.2763 17.8744C60.3217 17.3891 60.2825 16.8993 60.1606 16.4282C60.0557 16.2242 59.9107 16.0451 59.7349 15.9022C59.5591 15.7593 59.3564 15.6559 59.1396 15.5984C58.9228 15.541 58.6967 15.5308 58.4759 15.5686C58.2551 15.6064 58.0442 15.6913 57.857 15.8178C57.7976 15.8832 57.7614 15.9674 57.7542 16.0567C57.7413 17.0916 57.7413 18.1132 57.7413 19.1481Z" fill="black"/>
<path d="M46.4562 14.1856C46.4339 14.4061 46.4339 14.6285 46.4562 14.849C46.4562 15.3532 46.2117 15.4593 45.7742 15.446C44.7447 15.446 43.7153 15.446 42.6986 15.446C42.3456 15.4391 41.9992 15.5458 41.7077 15.7512C41.6216 15.8743 41.566 16.0172 41.5458 16.1676C41.5256 16.3179 41.5414 16.4711 41.5919 16.6136C41.6636 16.7421 41.7619 16.8527 41.8798 16.9376C41.9977 17.0224 42.1323 17.0794 42.274 17.1046C42.8481 17.1443 43.4242 17.1443 43.9984 17.1046C44.285 17.0649 44.5765 17.0888 44.8535 17.1746C45.1304 17.2603 45.3864 17.406 45.6044 17.6019C45.8224 17.7978 45.9975 18.0394 46.1177 18.3106C46.238 18.5817 46.3007 18.8762 46.3018 19.1744C46.3307 19.478 46.2933 19.7843 46.1923 20.0711C46.0914 20.3578 45.9294 20.6175 45.7184 20.8313C45.5074 21.0451 45.2525 21.2074 44.9727 21.3064C44.6929 21.4054 44.3951 21.4386 44.1013 21.4035C42.3512 21.4035 40.6139 21.4035 38.8638 21.4035C37.9115 21.4035 36.9464 21.4035 35.9941 21.4035C35.3398 21.4588 34.6906 21.2462 34.1872 20.8116C33.6838 20.377 33.3668 19.7555 33.3047 19.0815C33.1953 18.1304 33.2343 17.1673 33.4204 16.2289C33.5318 15.6784 33.8222 15.1837 34.2434 14.8266C34.6646 14.4695 35.1914 14.2715 35.7367 14.2652C36.5861 14.1988 37.4482 14.2652 38.3748 14.2652L38.2204 15.5124H36.6762C36.479 15.4942 36.2802 15.5178 36.0921 15.5816C35.904 15.6454 35.7305 15.7482 35.5823 15.8836C35.4341 16.019 35.3143 16.1842 35.2302 16.3691C35.1461 16.5539 35.0995 16.7546 35.0933 16.9586C35.0879 17.0558 35.0879 17.1533 35.0933 17.2505C34.8231 19.5725 35.3507 20.1563 37.5769 20.1165C39.3657 20.1165 41.1673 20.1165 42.956 20.1165C43.2431 20.1363 43.5311 20.1363 43.8182 20.1165C44.0313 20.0798 44.2237 19.9632 44.3584 19.789C44.4931 19.6149 44.5606 19.3955 44.5478 19.1731C44.535 18.9508 44.4429 18.7411 44.2892 18.5845C44.1355 18.428 43.931 18.3357 43.7152 18.3252C42.9303 18.3252 42.1324 18.3252 41.3603 18.2058C40.9719 18.1877 40.6033 18.024 40.3237 17.7455C40.0441 17.467 39.8728 17.0928 39.8418 16.6932C39.728 16.2463 39.7764 15.7718 39.9778 15.3589C40.1792 14.9461 40.5198 14.6232 40.9357 14.4509C41.2401 14.3057 41.5667 14.216 41.9008 14.1856C43.3549 14.1723 44.8863 14.1856 46.4562 14.1856Z" fill="black"/>
<path d="M41.9646 32.7085H40.2273V29.2588C40.2273 27.932 39.777 27.587 38.4387 28.131V32.6952H36.7271V29.9222C36.7271 29.6038 36.7271 29.2853 36.7271 28.9536C36.7271 28.0116 36.3153 27.7595 35.4403 27.9453C35.0156 28.0249 34.9513 28.2371 34.9642 28.5954C34.9642 29.9222 34.9642 31.249 34.9642 32.6952H33.2012C33.2012 30.9571 33.2012 29.2455 33.2012 27.5207C33.2279 27.3702 33.2884 27.2283 33.3777 27.1062C33.4671 26.9841 33.5829 26.8852 33.7159 26.8175C34.8746 26.3279 36.1629 26.2716 37.3577 26.6582C37.6006 26.6984 37.8482 26.6984 38.0912 26.6582C38.8366 26.5393 39.589 26.4728 40.3432 26.4592C40.7721 26.4662 41.1813 26.6468 41.4822 26.9621C41.7832 27.2773 41.9518 27.7019 41.9517 28.1443C42.0032 29.6568 41.9646 31.1429 41.9646 32.7085Z" fill="black"/>
<path d="M53.611 26.6185V23.8587L55.3997 23.5801V27.1757C55.3997 28.5026 55.3997 29.8294 55.3997 31.2358C55.3997 32.0319 55.1037 32.5626 54.3316 32.5626C53.4795 32.6889 52.6166 32.72 51.7579 32.6555C51.1721 32.5758 50.6337 32.2811 50.2413 31.8255C49.849 31.3698 49.6291 30.7836 49.6218 30.1744C49.4802 27.932 50.2137 25.8622 53.611 26.6185ZM53.611 29.6834C53.611 29.2589 53.611 28.8475 53.611 28.3566C53.6114 28.1964 53.5567 28.0413 53.4566 27.9188C53.166 27.7529 52.8285 27.6966 52.5021 27.7596C52.1756 27.8225 51.8806 28.0008 51.6678 28.2637C51.4828 28.68 51.387 29.1326 51.387 29.5906C51.387 30.0485 51.4828 30.5011 51.6678 30.9174C51.8409 31.1582 52.0841 31.3357 52.3619 31.424C52.6396 31.5123 52.9375 31.5068 53.2121 31.4083C53.8426 31.2756 53.5081 30.7449 53.5724 30.3734C53.604 30.1449 53.6126 29.9137 53.5981 29.6834H53.611Z" fill="black"/>
<path d="M56.6219 26.8176C57.7829 26.655 58.9511 26.5532 60.1221 26.5124C60.3697 26.4904 60.619 26.5243 60.8526 26.6117C61.0863 26.699 61.2987 26.8378 61.475 27.0184C61.6514 27.1989 61.7874 27.4169 61.8738 27.6572C61.9602 27.8975 61.9948 28.1543 61.9752 28.4097C61.9752 29.8825 61.9752 31.3553 61.9752 32.8944H61.409C60.6111 32.8944 59.8133 32.8944 59.0154 32.8944C58.5898 32.9776 58.1503 32.9415 57.7429 32.7898C57.3354 32.6381 56.975 32.3763 56.6991 32.0319C56.5303 31.7617 56.4329 31.4508 56.4165 31.1298C56.4002 30.8089 56.4654 30.4891 56.6059 30.2022C56.7463 29.9152 56.9571 29.6711 57.2172 29.494C57.4773 29.3169 57.7778 29.213 58.0889 29.1926C58.7966 29.0864 59.5044 29.0864 60.2122 29.0466C60.3409 28.1444 60.0964 27.7861 59.2728 27.8392C58.4492 27.8923 57.7157 28.0648 56.8535 28.1975L56.6219 26.8176ZM60.3023 30.0815C59.7527 30.0842 59.2049 30.1464 58.668 30.2673C58.5356 30.3476 58.4257 30.4619 58.349 30.5991C58.2723 30.7364 58.2315 30.8917 58.2305 31.0501C58.2773 31.1961 58.358 31.328 58.4657 31.4344C58.5734 31.5408 58.7047 31.6184 58.8481 31.6604C59.3365 31.6638 59.8238 31.6149 60.3023 31.5145V30.0815Z" fill="black"/>
<path d="M48.5533 32.8405H45.1688C43.779 32.8405 43.0455 32.0577 43.1227 30.784C43.1395 30.3335 43.3267 29.9077 43.6442 29.5977C43.9616 29.2877 44.3842 29.1182 44.8214 29.1254C45.5034 29.0458 46.1983 29.0193 46.8804 28.9662C47.0091 28.1303 46.7646 27.7456 45.9924 27.7986C45.2203 27.8517 44.3581 28.0242 43.496 28.1436L43.3158 27.0026C44.528 26.4523 45.8693 26.2771 47.1763 26.4984C47.5519 26.5322 47.9035 26.7031 48.1677 26.9804C48.4319 27.2577 48.5914 27.6231 48.6176 28.0109C48.6047 29.6296 48.5533 31.2483 48.5533 32.8405ZM46.8675 30.0542C46.3396 30.0518 45.813 30.1097 45.2975 30.2267C45.1625 30.2988 45.047 30.4045 44.9616 30.5343C44.8763 30.664 44.8236 30.8137 44.8085 30.9697C44.8517 31.12 44.9292 31.2574 45.0344 31.3706C45.1396 31.4837 45.2695 31.5691 45.4133 31.6199C46.6359 31.872 47.0605 31.4341 46.8675 30.0542Z" fill="black"/>
</g>
<defs>
<clipPath id="clip0_116_26891">
<rect width="55" height="19" fill="white" transform="translate(7 14)"/>
</clipPath>
</defs>
</svg>
