<svg width="70" height="48" viewBox="0 0 70 48" fill="none" xmlns="http://www.w3.org/2000/svg">
<rect x="0.5" y="0.5" width="69" height="47" rx="5.5" fill="white" stroke="#D9D9D9"/>
<path fill-rule="evenodd" clip-rule="evenodd" d="M35.3936 34.7639C33.0106 36.82 29.9196 38.0612 26.5421 38.0612C19.0047 38.0612 12.8945 31.88 12.8945 24.2552C12.8945 16.6304 19.0047 10.4492 26.5421 10.4492C29.9196 10.4492 33.0106 11.6904 35.3936 13.7465C37.7767 11.6904 40.8676 10.4492 44.2452 10.4492C51.7825 10.4492 57.8927 16.6304 57.8927 24.2552C57.8927 31.88 51.7825 38.0612 44.2452 38.0612C40.8676 38.0612 37.7767 36.82 35.3936 34.7639Z" fill="#ED0006"/>
<path fill-rule="evenodd" clip-rule="evenodd" d="M35.3945 34.7639C38.3294 32.2316 40.1905 28.4633 40.1905 24.2552C40.1905 20.0471 38.3294 16.2788 35.3945 13.7465C37.7776 11.6904 40.8685 10.4492 44.2461 10.4492C51.7834 10.4492 57.8936 16.6304 57.8936 24.2552C57.8936 31.88 51.7834 38.0612 44.2461 38.0612C40.8685 38.0612 37.7776 36.82 35.3945 34.7639Z" fill="#F9A000"/>
<path fill-rule="evenodd" clip-rule="evenodd" d="M35.3936 34.7635C38.3286 32.2312 40.1896 28.4628 40.1896 24.2548C40.1896 20.0467 38.3286 16.2784 35.3936 13.7461C32.4587 16.2784 30.5977 20.0467 30.5977 24.2548C30.5977 28.4628 32.4587 32.2312 35.3936 34.7635Z" fill="#FF5E00"/>
</svg>
