<svg width="394" height="369" viewBox="0 0 394 369" fill="none" xmlns="http://www.w3.org/2000/svg">
<g clip-path="url(#clip0_10581_31689)">
<path d="M66.5298 160.057H141.403C154.089 160.057 164.379 170.365 164.379 183.052V213.888H66.5298C53.8446 213.888 43.5547 203.579 43.5547 190.893V183.052C43.5547 170.355 53.8546 160.057 66.5298 160.057Z" stroke="white" stroke-width="2" stroke-miterlimit="10"/>
<path d="M266.509 353.937C294.015 344.227 320.633 327.625 338.049 303.421C359.357 273.823 357.531 240.27 361.892 205.677C363.669 191.623 373.07 183.541 378.66 171.075C390.466 144.783 386.295 105.216 361.473 87.3556C346.183 76.3575 331.412 75.1588 323.188 56.0295C318.637 45.451 315.972 33.8136 308.906 24.7235C298.676 11.5677 281.3 6.39334 264.842 3.79616C245.699 0.779426 227.006 1.4487 207.813 0.879318C187.353 0.269978 166.594 0.829372 146.733 6.26348C119.775 13.6455 90.1434 32.9645 85.4426 62.3727C83.4265 74.979 86.0714 88.4344 81.2807 100.282C74.0748 118.092 54.8923 124.136 40.6102 134.664C25.2702 145.962 15.2997 163.603 10.9182 181.933C3.46278 213.179 8.95206 247.832 23.4737 276.201C39.0133 306.568 64.254 332.4 94.8741 347.594C118.857 359.491 151.993 363.007 179.04 364.675C208.592 366.503 238.683 363.756 266.499 353.937H266.509Z" fill="#B5DDFB"/>
<path d="M336.901 231.958C336.731 187.327 324.395 144.453 288.106 115.694C243.334 80.2126 180.746 80.6721 134.985 113.776C105.054 135.423 84.0749 167.997 72.3079 203.03C60.5409 238.062 57.5068 275.531 58.7544 312.471L331.222 313.32C332.36 300.784 333.497 288.247 334.635 275.711C335.943 261.326 336.951 246.622 336.901 231.948V231.958Z" fill="#75A2C4"/>
<path opacity="0.75" d="M81.5005 155.062H156.374C169.059 155.062 179.349 165.37 179.349 178.057V208.893H81.5005C68.8153 208.893 58.5254 198.584 58.5254 185.898V178.057C58.5254 165.36 68.8253 155.062 81.5005 155.062Z" stroke="white" stroke-miterlimit="10"/>
<path opacity="0.75" d="M143.18 48.9268H247.656C264.433 48.9268 278.046 62.552 278.046 79.3438V120.13H143.17C126.393 120.13 112.779 106.504 112.779 89.7125V79.3438C112.779 62.552 126.393 48.9268 143.17 48.9268H143.18Z" stroke="white" stroke-miterlimit="10"/>
<path d="M105.135 305.359C104.796 305.009 104.357 304.79 103.977 304.49C102.57 303.371 102.281 301.373 102.131 299.575C100.325 277.589 103.618 255.473 102.58 233.437C102.331 228.183 98.069 230.76 94.5858 231.439C94.0668 231.539 87.2501 232.818 87.32 232.039C86.7112 238.302 85.9127 245.005 81.7708 249.729C78.9064 253.006 74.8044 254.874 71.2015 257.321C57.6679 266.521 49.7733 284.222 47.7972 300.195C47.7673 299.845 47.7273 299.485 47.6974 299.136C47.4279 295.949 47.2183 292.763 47.0587 289.576C46.7293 282.873 46.6295 276.161 46.7792 269.458C46.889 264.463 47.4878 258.999 44.4837 254.664C41.9287 250.988 39.0942 250.708 35.4513 250.399C34.4732 248.411 34.6429 244.485 34.6529 242.717C34.6729 239.87 35.1519 236.614 37.2279 234.436C40.6412 230.86 45.9508 233.047 50.2724 231.959C60.0832 229.501 56.58 216.995 55.9313 209.773C55.5321 205.328 48.5358 205.288 48.945 209.773C49.2743 213.389 49.9829 217.165 49.943 220.791C49.9131 223.118 49.973 224.627 47.4978 225.346C46.4997 225.636 45.1424 225.346 44.1244 225.346C39.0343 225.296 34.6828 226.445 31.3993 230.58C27.8562 235.055 27.3172 240.829 27.9061 246.333C28.3552 250.499 28.5249 256.332 33.6049 257.211C38.3157 258.03 39.7928 258.979 39.9226 264.044C40.0024 267.44 39.7529 270.856 39.7429 274.253C39.713 281.924 39.9825 289.586 40.5713 297.238C40.9107 301.603 40.1621 309.565 43.8749 312.821C45.7312 314.449 47.9569 314.559 49.7534 313.65C55.562 313.97 69.2952 313.151 70.7723 313.151H88.4977C91.4719 313.151 96.7016 314.17 99.5361 312.701C101.083 311.902 103.828 310.454 104.936 309.155C105.834 308.106 106.103 306.368 105.135 305.379V305.359Z" fill="#352292"/>
<path d="M102.769 239.87C102.799 238.072 102.749 236.274 102.629 234.486C102.609 234.136 102.579 233.786 102.519 233.447C102.46 233.077 102.36 232.707 102.18 232.378C100.893 229.861 96.3016 232.038 94.4951 232.927C92.509 233.906 90.6726 235.185 88.896 236.513C87.868 237.282 86.7203 238.211 86.1614 239.4C85.5725 240.669 85.9119 242.707 86.0416 244.065C86.1314 245.094 86.3111 246.173 86.9399 246.982C87.5686 247.791 88.7863 248.241 89.6745 247.691C89.8641 248.77 90.0538 249.899 90.6027 250.848C91.0418 251.607 91.7305 252.136 92.5589 252.386C93.1178 252.546 93.0879 252.446 93.2875 253.035C93.2875 253.055 93.2974 253.065 93.3074 253.085C93.4272 253.545 93.6068 253.984 93.8464 254.384C93.8563 254.414 93.8663 254.444 93.8863 254.474C94.036 254.764 94.2057 255.043 94.4552 255.263C94.5949 255.383 94.7546 255.473 94.9143 255.543C94.9143 255.543 94.9243 255.543 94.9342 255.553C95.2636 255.762 95.6329 255.892 96.0321 255.922C97.0401 256.002 98.0981 255.722 98.657 254.813C99.2658 253.835 99.1261 252.716 99.0662 251.627C99.8247 251.587 100.533 251.197 100.893 250.368C101.262 249.529 101.182 248.46 101.192 247.571C101.212 246.492 101.162 245.424 101.072 244.355C103.178 244.575 102.719 241.308 102.739 239.87H102.769Z" fill="#785AEC"/>
<path d="M79.7342 275.632C83.2673 277.749 85.5828 282.035 85.1537 286.17C84.7145 290.495 81.3012 293.942 78.1374 296.599C74.8338 299.376 71.151 301.933 69.0352 305.699C71.2009 305.419 73.3867 305.259 75.5724 305.2C77.4387 305.15 79.6045 305.319 80.7024 306.838C81.8501 308.426 81.2114 310.634 81.5108 312.572C81.7204 312.701 82.0298 312.641 82.1695 312.442C82.3092 312.941 82.2693 312.971 82.7883 312.931C84.5349 312.801 86.022 311.483 86.8204 309.924C87.6188 308.366 87.8783 306.588 88.0779 304.85C88.8265 298.617 89.2257 292.323 88.8165 286.06C88.6868 284.082 88.4572 282.035 87.4392 280.326C85.7425 277.48 83.0378 275.362 79.7243 275.632H79.7342Z" fill="url(#paint0_linear_10581_31689)"/>
<path d="M71.0019 217.594C70.9121 217.284 70.8322 216.965 70.7324 216.655C70.7723 216.805 71.5808 217.105 71.7305 217.184C72.0898 217.374 72.4491 217.574 72.7984 217.774C73.507 218.173 74.2156 218.573 74.9142 218.983C75.6129 219.392 76.3115 219.822 77.0002 220.251C77.3096 220.441 77.4693 220.621 77.8286 220.561C78.3376 220.481 78.8466 220.171 79.3256 219.981C79.9245 219.742 80.5233 219.502 81.1321 219.262C82.3397 218.783 83.5374 218.313 84.745 217.834C87.1204 216.895 89.4958 215.936 91.8511 214.927C92.7594 214.537 94.8154 214.008 95.1647 213.009C95.2944 212.649 95.2944 212.27 95.3144 211.89C95.4142 209.982 95.7835 206.366 95.7835 206.366C95.7835 206.366 97.2107 207.585 97.4302 207.855C97.9492 208.474 98.4483 209.113 98.9273 209.763C99.8855 211.071 100.744 212.39 101.532 213.818C103.179 216.795 104.586 219.912 105.724 223.118C106.642 225.695 107.101 228.282 105.375 230.61C103.778 232.778 101.233 234.136 98.8874 235.345C94.1267 237.802 89.0267 240.559 83.6172 241.069C82.2599 241.198 80.8427 241.168 79.625 240.549C78.3775 239.91 77.5092 238.721 76.8505 237.492C73.517 231.269 72.8283 224.287 71.0019 217.594Z" fill="#352292"/>
<path d="M97.6389 231.35C96.062 230.83 94.4053 230.72 92.8184 230.271C92.9281 230.101 93.018 229.921 93.1078 229.771C93.3473 229.352 93.5769 228.932 93.7965 228.503C93.9561 228.193 93.8064 227.883 93.497 227.773C92.978 227.574 92.0998 228.053 91.6107 228.233C90.8422 228.503 90.1037 228.822 89.405 229.242C89.0258 229.472 89.1156 230.031 89.5248 230.151C90.1935 230.361 90.8622 230.57 91.5309 230.78C90.8522 232.478 90.2534 234.196 89.7743 235.955C89.6046 236.574 90.5628 236.844 90.7324 236.224C91.2015 234.516 91.7804 232.848 92.4291 231.2C94.046 231.679 95.7526 231.779 97.3695 232.318C97.9783 232.518 98.2378 231.559 97.6389 231.36V231.35Z" fill="#15064A"/>
<path d="M83.9473 227.154C83.7178 227.074 83.4982 227.084 83.3086 227.154C83.1888 227.144 83.0591 227.184 82.9493 227.324C82.8495 227.454 82.7896 227.593 82.7397 227.733C82.7097 227.813 82.6798 227.883 82.6598 227.973C82.6199 228.143 82.6598 228.283 82.7596 228.393C82.8095 228.532 82.8894 228.652 83.0191 228.762C83.4583 229.152 84.1469 228.992 84.4463 228.502C84.7657 227.993 84.5062 227.344 83.9473 227.144V227.154Z" fill="#15064A"/>
<path d="M98.918 221.16C98.6885 221.08 98.4689 221.09 98.2793 221.16C98.1595 221.15 98.0298 221.19 97.92 221.33C97.8202 221.459 97.7603 221.599 97.7104 221.739C97.6804 221.819 97.6505 221.889 97.6305 221.979C97.5906 222.149 97.6305 222.289 97.7303 222.398C97.7802 222.538 97.8601 222.658 97.9898 222.768C98.429 223.158 99.1176 222.998 99.417 222.508C99.7364 221.999 99.4769 221.35 98.918 221.15V221.16Z" fill="#15064A"/>
<path opacity="0.75" d="M276.05 126.683H322.629C336.072 126.683 346.981 137.601 346.981 151.056C346.981 164.512 336.072 175.43 322.629 175.43H251.697V151.056C251.697 137.601 262.606 126.683 276.05 126.683Z" stroke="white" stroke-miterlimit="10"/>
<path d="M124.756 285.97C122.859 292.483 121.223 300.045 125.065 305.639C129.696 312.372 140.315 312.302 146.992 307.577C153.669 302.862 157.282 295.01 160.366 287.439C165.576 274.683 170.157 261.547 171.963 247.892C173.021 239.91 172.103 229.991 164.857 226.485C153.719 221.091 144.218 229.691 140.605 239.121C134.716 254.534 129.357 270.117 124.746 285.96L124.756 285.97Z" fill="#ED7B66"/>
<path d="M158.579 203.619C155.715 206.665 153.15 210.012 150.894 213.518C147.75 218.413 145.644 223.647 143.179 228.871C142.321 230.699 135.065 246.612 136.692 247.771C145.804 254.284 154.747 261.406 165.186 265.412C165.536 265.552 163.549 273.203 163.36 273.933C162.651 276.76 162.002 279.606 161.434 282.473C160.286 288.157 159.398 293.921 158.4 299.645C157.841 302.831 157.302 306.018 156.773 309.214C156.533 310.643 201.885 313.67 205.996 313.729C217.993 313.909 236.846 317.276 244.132 305.019C245.859 302.112 246.727 298.786 247.485 295.489C251.987 276.21 253.913 256.342 253.444 236.553C253.334 231.908 253.094 227.233 251.967 222.718C250.32 216.155 246.887 210.262 243.284 204.608C240 199.443 234.83 196.596 229.351 193.969C212.833 186.058 192.962 183.521 176.215 190.903C169.498 193.869 163.599 198.305 158.599 203.629L158.579 203.619Z" fill="#ECBA40"/>
<path d="M233.953 250.328C233.504 251.377 233.045 252.426 232.596 253.475C230.859 257.5 226.478 264.473 226.478 268.888C224.432 275.291 223.454 282.154 224.651 288.767C225.13 291.414 225.949 293.981 226.807 296.528C227.905 299.735 229.103 302.971 231.139 305.678C232.965 308.116 237.336 311.971 240.72 310.653C244.243 309.284 246.878 302.871 248.225 299.705C256.23 280.895 259.393 260.227 261.35 239.989C261.489 238.571 261.609 237.132 261.31 235.744C260.86 233.666 259.523 231.918 258.206 230.26C256.449 228.072 254.423 225.785 251.668 225.295C249.024 224.826 246.329 226.204 244.512 228.182C242.696 230.16 241.598 232.677 240.53 235.145C238.344 240.209 236.149 245.274 233.963 250.338L233.953 250.328Z" fill="#ED7B66"/>
<path d="M248.464 248.211C246.917 247.781 225.409 242.547 225.359 245.204C225.519 233.516 226.168 221.829 227.296 210.192C227.655 206.486 228.074 202.72 229.491 199.274C230.899 195.827 233.434 192.671 236.917 191.342C239.482 190.363 242.356 190.453 245.041 191.042C253.494 192.88 260.63 199.813 262.716 208.224C263.605 211.83 263.625 215.586 263.595 219.292C263.495 230.32 262.676 241.318 262.028 252.296C257.407 252.196 252.886 249.459 248.474 248.221L248.464 248.211Z" fill="#ECBA40"/>
<path d="M259.382 188.915C259.661 189.914 259.861 190.933 259.931 191.972C260.38 198.984 255.779 204.848 251.158 209.593C249.341 211.451 246.786 212.729 245.15 214.657C243.283 216.865 243.363 220.501 240.109 221.48C238.692 221.909 237.075 221.37 236.117 220.271C234.939 218.932 234.969 217.484 235.558 215.886C236.257 213.998 236.886 211.64 238.004 209.962C238.902 208.614 240.708 207.715 242.056 206.915C244.78 205.297 246.916 202.201 247.365 199.074C248.214 193.17 247.355 186.518 249.411 180.874C249.771 179.895 250.25 178.936 251.018 178.247C251.787 177.557 252.924 177.188 253.902 177.527C255.34 178.027 255.909 179.715 256.418 181.153C257.326 183.761 258.633 186.278 259.382 188.915Z" fill="#CC6A58"/>
<path d="M251.687 263.095C252.356 275.711 252.206 288.568 248.773 300.814C247.755 304.47 246.058 309.705 242.525 311.752C238.533 314.06 232.275 312.202 228.562 310.074C226.117 308.676 223.771 306.948 222.225 304.59C219.779 300.864 219.65 296.109 219.929 291.654C220.697 279.697 223.662 268.549 225.967 256.892C228.482 244.186 231.437 231.569 234.81 219.063C236.247 213.719 238.113 209.743 242.565 206.377C245.749 203.979 251.088 200.803 251.378 207.046C252.256 225.686 250.679 244.385 251.667 263.095H251.687Z" fill="#CC6A58"/>
<path d="M201.325 199.174C200.936 199.844 200.597 200.533 200.437 201.282C200.227 202.241 200.327 203.24 200.437 204.219C201.355 211.511 202.872 218.733 210.687 221.011C215.867 222.519 222.274 221.99 227.015 219.333C228.532 218.483 230.039 217.544 231.237 216.276C232.434 215.007 233.313 213.359 233.363 211.621C238.612 212.77 244.042 207.425 246.776 203.58C253.044 194.779 255.12 183.731 254.162 173.093C253.932 170.476 253.523 167.748 251.946 165.651C250.848 164.182 249.272 163.163 247.735 162.175C240.549 157.569 232.904 157.32 225.049 160.956C217.923 164.252 212.973 171.305 209.629 178.157C208.232 181.024 207.982 184.8 206.864 187.867C205.547 191.463 203.88 194.939 201.894 198.205C201.705 198.515 201.515 198.835 201.325 199.154V199.174Z" fill="#ED7B66"/>
<path d="M211.236 162.194C212.863 158.578 215.208 155.242 218.173 153.184C223.572 149.438 231.377 150.137 237.445 151.496C240.938 152.285 244.441 153.803 248.074 153.763C251.348 153.723 254.741 150.457 257.925 151.556C259.332 152.045 260.45 153.294 260.769 154.752C261.298 157.14 259.821 159.447 258.663 161.615C257.755 163.323 257.007 165.141 255.829 166.679C254.282 168.687 251.867 170.355 249.292 170.645C248.433 170.745 247.565 170.645 246.697 170.565C241.537 170.026 237.215 168.587 233.263 172.673C230.578 175.45 229.241 179.246 227.265 182.502C226.786 183.291 226.237 184.09 225.448 184.57C224.4 185.209 223.103 185.199 221.905 185.479C216.785 186.668 213.422 195.258 208.012 193.41C203.371 191.822 204.429 187.607 206.266 184.27C208.541 180.115 208.112 175.08 208.801 170.385C209.18 167.788 210.008 164.921 211.236 162.194Z" fill="#15064A"/>
<path d="M212.524 182.042C211.316 183.601 210.698 185.539 210.318 187.477C209.989 189.145 209.829 190.893 210.338 192.521C210.847 194.149 212.145 195.598 213.821 195.867C215.139 196.077 216.486 195.538 217.484 194.659C219.87 192.571 222.674 186.158 221.995 182.891C221.017 178.207 214.879 179.026 212.534 182.052L212.524 182.042Z" fill="#ED7B66"/>
<path d="M217.245 183.761C215.908 184.21 214.9 185.359 214.301 186.638C213.702 187.916 213.453 189.325 213.203 190.713" stroke="#15064A" stroke-miterlimit="10"/>
<path d="M251.12 184.74C251.259 185.369 250.87 185.998 250.241 186.138C249.612 186.288 248.984 185.888 248.844 185.259C248.694 184.63 249.094 184 249.722 183.861C250.351 183.711 250.98 184.11 251.12 184.74Z" fill="#15064A"/>
<path d="M238.024 185.749C238.134 186.388 237.704 186.987 237.066 187.097C236.427 187.207 235.828 186.777 235.718 186.138C235.609 185.499 236.038 184.899 236.676 184.79C237.315 184.68 237.914 185.109 238.024 185.749Z" fill="#15064A"/>
<path d="M221.057 281.834C220.548 285.09 220.148 288.357 219.939 291.653C219.649 296.099 219.789 300.863 222.234 304.589C223.781 306.947 226.127 308.675 228.572 310.073C232.275 312.201 238.543 314.059 242.535 311.752C246.068 309.714 247.765 304.469 248.783 300.813C250.519 294.6 251.417 288.237 251.787 281.834H221.067H221.057Z" fill="url(#paint1_linear_10581_31689)"/>
<path d="M185.218 262.445C183.401 257.261 181.585 252.066 179.758 246.882C179.888 247.261 178.78 249 178.6 249.409C178.191 250.308 177.782 251.207 177.373 252.106C176.534 253.954 175.696 255.802 174.838 257.65C173.211 261.136 171.604 264.733 169.608 267.999C168.021 267.47 166.534 266.67 165.227 265.632C164.688 268.788 163.7 271.745 163.071 274.881C162.741 276.51 162.442 278.138 162.143 279.766C161.993 280.595 161.833 281.424 161.683 282.253C161.624 282.593 161.494 284.361 161.234 284.511C169.738 279.526 177.542 273.343 184.339 266.201C184.878 265.632 185.447 264.992 185.557 264.213C185.637 263.614 185.437 263.014 185.237 262.445H185.218Z" fill="url(#paint2_linear_10581_31689)"/>
<path d="M251.936 178.367C250.35 178.147 248.693 178.526 247.365 179.425C246.737 179.855 246.407 180.614 246.797 181.333C247.126 181.953 248.064 182.332 248.703 181.903C249.671 181.243 250.659 181.014 251.817 181.174C252.565 181.273 253.254 180.534 253.284 179.825C253.314 179.006 252.695 178.466 251.936 178.357V178.367Z" fill="#15064A"/>
<path d="M240.6 180.575C238.644 179.675 236.558 180.075 234.562 180.614C233.025 181.034 233.404 183.511 234.951 183.082C236.498 182.662 238.135 182.183 239.672 182.892C241.139 183.571 242.057 181.244 240.6 180.575Z" fill="#15064A"/>
<path d="M223.004 207.255C222.884 209.862 222.785 212.479 222.715 215.086C222.675 216.445 222.645 217.803 222.625 219.172C222.625 219.422 222.555 219.881 222.535 220.361C224.122 219.971 225.749 219.701 227.256 219.012C229.382 218.043 231.438 216.725 232.506 214.547C232.915 213.718 233.164 212.819 233.414 211.91C229.831 211.181 225.709 209.802 223.004 207.255Z" fill="url(#paint3_linear_10581_31689)"/>
<path d="M195.548 313.1C209.062 314.709 223.963 316.467 236.967 312.631C234.861 309.624 232.725 306.588 230.041 304.08C227.356 301.573 224.032 299.595 220.39 299.146C218.473 298.906 216.517 299.086 214.601 299.325C211.237 299.735 206.876 301.483 203.552 301.213C200.738 300.984 197.055 298.566 194.39 297.507C176.296 290.335 154.828 280.586 135.046 285.79C125.046 288.427 119.028 296.788 125.924 306.198C129.777 311.452 136.004 310.473 142.073 310.573C158.461 310.843 174.908 310.713 191.217 312.591C192.644 312.751 194.081 312.931 195.548 313.1Z" fill="#ED7B66"/>
<path d="M236.368 201.162L235.4 200.913C235.949 198.785 236.668 197.197 237.656 195.928C238.914 194.3 240.65 193.261 242.417 193.061C243.045 192.991 243.624 193.041 244.133 193.201C245.171 193.531 246.09 194.39 246.648 195.578L245.75 196.008C245.311 195.069 244.612 194.4 243.844 194.15C243.465 194.03 243.025 194 242.536 194.05C241.039 194.21 239.552 195.119 238.454 196.537C237.556 197.696 236.897 199.165 236.378 201.162H236.368Z" fill="#15064A"/>
<path d="M161.663 279.837C161.523 279.607 161.394 279.377 161.264 279.148C160.326 277.599 159.438 276.021 158.589 274.423C157.332 275.662 156.114 276.87 154.647 277.879C152.761 279.178 151.064 280.736 149.477 282.384C148.499 283.393 147.571 284.442 146.643 285.491C146.892 286.06 147.122 286.63 147.361 287.219C147.481 287.509 147.611 287.788 147.73 288.068C148.359 287.858 148.988 287.659 149.627 287.469C152.84 286.54 157.072 285.261 160.645 285.771C160.835 283.823 161.593 281.965 161.753 280.007C161.723 279.947 161.693 279.887 161.673 279.827L161.663 279.837Z" fill="url(#paint4_linear_10581_31689)"/>
<path d="M240.35 205.147C239.771 205.147 238.942 205.517 238.663 206.056C238.513 206.346 238.573 206.656 238.753 206.836C238.793 207.025 238.912 207.185 239.152 207.255C239.861 207.435 240.499 207.075 240.929 206.516C241.368 205.947 241.138 205.157 240.35 205.157V205.147Z" fill="#CC6A58"/>
<path d="M241.367 177.627C240.649 177.328 239.9 177.158 239.132 177.068C238.493 176.998 238.503 177.997 239.132 178.067C239.81 178.147 240.469 178.337 241.108 178.596C241.697 178.846 241.956 177.877 241.377 177.637L241.367 177.627Z" fill="#CC6A58"/>
<path d="M247.566 176.179C247.047 176.339 246.518 176.499 245.999 176.669C245.39 176.859 245.649 177.828 246.268 177.628C246.787 177.468 247.316 177.308 247.835 177.138C248.444 176.948 248.184 175.98 247.566 176.179Z" fill="#CC6A58"/>
<path d="M93.4771 125.095H168.351C181.036 125.095 191.326 135.404 191.326 148.09V178.926H93.4771C80.7918 178.926 70.502 168.618 70.502 155.931V148.09C70.502 135.394 80.8018 125.095 93.4771 125.095Z" fill="white"/>
<path d="M108.547 157.889C106.891 157.889 105.593 157.429 104.655 156.51C103.717 155.591 103.258 154.293 103.258 152.615C103.258 150.936 103.687 149.548 104.555 148.609C105.414 147.67 106.611 147.19 108.138 147.19C109.665 147.19 110.723 147.61 111.542 148.439C112.35 149.268 112.759 150.417 112.759 151.875V153.244H106.112C106.142 154.043 106.382 154.662 106.821 155.112C107.26 155.561 107.879 155.781 108.677 155.781C109.296 155.781 109.885 155.721 110.434 155.591C110.983 155.461 111.562 155.252 112.17 154.972V157.15C111.681 157.399 111.152 157.579 110.593 157.699C110.035 157.819 109.356 157.879 108.547 157.879V157.889ZM108.148 149.198C107.549 149.198 107.08 149.388 106.751 149.768C106.412 150.147 106.222 150.687 106.172 151.376H110.114C110.104 150.677 109.925 150.147 109.575 149.768C109.226 149.388 108.757 149.198 108.158 149.198H108.148Z" fill="#ED7B66"/>
<path d="M122.671 147.21C123.05 147.21 123.369 147.24 123.619 147.29L123.409 149.927C123.18 149.867 122.91 149.837 122.581 149.837C121.683 149.837 120.984 150.067 120.485 150.526C119.986 150.986 119.736 151.635 119.736 152.464V157.709H116.922V147.4H119.048L119.467 149.138H119.607C119.926 148.559 120.355 148.099 120.904 147.739C121.443 147.39 122.042 147.21 122.681 147.21H122.671Z" fill="#ED7B66"/>
<path d="M133.12 147.21C133.499 147.21 133.818 147.24 134.068 147.29L133.858 149.927C133.629 149.867 133.359 149.837 133.03 149.837C132.132 149.837 131.433 150.067 130.934 150.526C130.435 150.986 130.186 151.635 130.186 152.464V157.709H127.371V147.4H129.497L129.916 149.138H130.056C130.375 148.559 130.804 148.099 131.353 147.739C131.892 147.39 132.491 147.21 133.13 147.21H133.12Z" fill="#ED7B66"/>
<path d="M147.191 152.534C147.191 154.212 146.752 155.521 145.864 156.47C144.976 157.419 143.748 157.888 142.171 157.888C141.183 157.888 140.315 157.669 139.556 157.239C138.798 156.81 138.219 156.18 137.82 155.371C137.411 154.562 137.211 153.613 137.211 152.534C137.211 150.846 137.65 149.537 138.528 148.608C139.407 147.669 140.644 147.21 142.231 147.21C143.219 147.21 144.088 147.43 144.846 147.859C145.605 148.289 146.183 148.908 146.583 149.717C146.992 150.526 147.191 151.465 147.191 152.544V152.534ZM140.065 152.534C140.065 153.553 140.235 154.322 140.564 154.852C140.904 155.371 141.443 155.631 142.201 155.631C142.96 155.631 143.489 155.371 143.818 154.852C144.147 154.332 144.307 153.563 144.307 152.534C144.307 151.505 144.137 150.746 143.808 150.237C143.479 149.727 142.93 149.468 142.181 149.468C141.433 149.468 140.894 149.717 140.564 150.227C140.235 150.736 140.065 151.505 140.065 152.524V152.534Z" fill="#ED7B66"/>
<path d="M157.143 147.21C157.523 147.21 157.842 147.24 158.091 147.29L157.882 149.927C157.652 149.867 157.383 149.837 157.053 149.837C156.155 149.837 155.457 150.067 154.958 150.526C154.459 150.986 154.209 151.635 154.209 152.464V157.709H151.395V147.4H153.52L153.94 149.138H154.079C154.399 148.559 154.828 148.099 155.377 147.739C155.916 147.39 156.515 147.21 157.153 147.21H157.143Z" fill="#ED7B66"/>
<path opacity="0.49" d="M303.417 288.857L277.567 192.321C273.934 178.746 261.778 169.206 247.745 168.897C221.088 168.317 205.748 199.014 222.205 220.011C249.233 254.514 279.114 293.282 279.114 293.282L303.427 288.857H303.417Z" fill="url(#paint5_linear_10581_31689)"/>
<path d="M288.515 114.686H340.823C351.223 114.686 359.666 123.136 359.666 133.545V139.978C359.666 150.387 351.223 158.838 340.823 158.838H269.662V133.545C269.662 123.136 278.106 114.686 288.505 114.686H288.515Z" fill="#352292"/>
<path d="M301.331 139.079C302.61 139.079 303.647 138.042 303.647 136.762C303.647 135.482 302.61 134.444 301.331 134.444C300.052 134.444 299.016 135.482 299.016 136.762C299.016 138.042 300.052 139.079 301.331 139.079Z" fill="white"/>
<path d="M316.99 136.762C316.99 138.04 315.952 139.079 314.675 139.079C313.397 139.079 312.359 138.04 312.359 136.762C312.359 135.483 313.397 134.444 314.675 134.444C315.952 134.444 316.99 135.483 316.99 136.762Z" fill="white"/>
<path d="M327.999 139.079C329.278 139.079 330.315 138.042 330.315 136.762C330.315 135.482 329.278 134.444 327.999 134.444C326.72 134.444 325.684 135.482 325.684 136.762C325.684 138.042 326.72 139.079 327.999 139.079Z" fill="white"/>
<path d="M135.497 300.164C134.119 300.164 132.812 300.035 131.664 299.785L132.103 297.687C136.465 298.606 143.591 297.657 145.617 293.492C146.236 292.213 146.226 290.635 145.587 289.366C144.938 288.078 143.89 287.198 142.473 286.769C139.768 285.94 136.245 286.879 133.96 288.167L132.912 286.299C135.397 284.891 139.559 283.642 143.102 284.721C145.068 285.321 146.585 286.589 147.503 288.407C148.431 290.255 148.451 292.563 147.543 294.431C145.507 298.626 140.147 300.154 135.507 300.154L135.497 300.164Z" fill="#AF2743"/>
<path d="M104.297 279.537H139.029V293.672C139.029 301.224 132.911 307.347 125.366 307.347H117.96C110.415 307.347 104.297 301.224 104.297 293.672V279.537Z" fill="#AF2743"/>
<path d="M148.65 309.495H95.2045C94.3163 309.495 93.5977 308.776 93.5977 307.887C93.5977 306.998 94.3163 306.278 95.2045 306.278H148.65C149.538 306.278 150.257 306.998 150.257 307.887C150.257 308.776 149.538 309.495 148.65 309.495Z" fill="white"/>
<mask id="mask0_10581_31689" style="mask-type:luminance" maskUnits="userSpaceOnUse" x="316" y="217" width="52" height="80">
<path d="M350.386 273.594C350.655 271.666 351.314 269.938 352.831 269.059C354.987 267.79 357.871 268.849 360.386 268.379C367.442 267.061 367.392 257.191 367.253 251.757C367.163 248.301 367.003 244.845 366.793 241.399C366.734 240.48 366.664 239.531 366.185 238.751C365.326 237.343 363.37 236.923 361.793 237.383C358.699 238.262 356.973 241.608 356.424 244.775C355.875 247.941 356.144 251.238 355.316 254.345C355.156 254.924 354.967 255.503 354.627 256.013C354.248 256.582 353.699 257.042 353.08 257.331C352.182 257.761 351.054 257.831 350.206 257.291C349.228 256.662 349.397 255.873 349.397 254.924C349.397 253.785 349.238 252.616 349.108 251.458C348.809 248.86 348.549 246.253 348.31 243.656C347.83 238.542 347.411 233.417 346.882 228.303C346.633 225.955 346.373 223.548 345.206 221.45C340.146 212.36 332.441 220.341 331.732 226.974C330.125 242.048 337.97 256.262 337.311 271.226C337.281 271.856 337.251 272.505 336.962 273.074C335.784 275.432 332.011 275.022 330.265 273.664C327.53 271.536 328.508 266.921 328.508 264.144C328.508 261.876 327.78 259.319 325.594 258.26C323.109 257.052 319.875 258.5 318.458 260.718C316.631 263.585 316.831 268.489 317.111 271.686C317.31 273.993 317.859 276.321 319.206 278.279C320.554 280.236 322.819 281.765 325.334 281.915C326.792 282.005 328.458 281.695 329.566 282.564C330.914 283.633 330.435 285.581 330.484 287.209C330.594 290.445 333.349 293.212 336.563 294.571C339.776 295.929 343.399 296.159 346.942 296.369C349.936 291.554 350.136 286.01 350.296 280.626C350.346 278.838 350.066 276.051 350.415 273.594H350.386Z" fill="white"/>
</mask>
<g mask="url(#mask0_10581_31689)">
<path d="M350.386 273.594C350.655 271.666 351.314 269.938 352.831 269.059C354.987 267.79 357.871 268.849 360.386 268.379C367.442 267.061 367.392 257.191 367.253 251.757C367.163 248.301 367.003 244.845 366.793 241.399C366.734 240.48 366.664 239.531 366.185 238.751C365.326 237.343 363.37 236.923 361.793 237.383C358.699 238.262 356.973 241.608 356.424 244.775C355.875 247.941 356.144 251.238 355.316 254.345C355.156 254.924 354.967 255.503 354.627 256.013C354.248 256.582 353.699 257.042 353.08 257.331C352.182 257.761 351.054 257.831 350.206 257.291C349.228 256.662 349.397 255.873 349.397 254.924C349.397 253.785 349.238 252.616 349.108 251.458C348.809 248.86 348.549 246.253 348.31 243.656C347.83 238.542 347.411 233.417 346.882 228.303C346.633 225.955 346.373 223.548 345.206 221.45C340.146 212.36 332.441 220.341 331.732 226.974C330.125 242.048 337.97 256.262 337.311 271.226C337.281 271.856 337.251 272.505 336.962 273.074C335.784 275.432 332.011 275.022 330.265 273.664C327.53 271.536 328.508 266.921 328.508 264.144C328.508 261.876 327.78 259.319 325.594 258.26C323.109 257.052 319.875 258.5 318.458 260.718C316.631 263.585 316.831 268.489 317.111 271.686C317.31 273.993 317.859 276.321 319.206 278.279C320.554 280.236 322.819 281.765 325.334 281.915C326.792 282.005 328.458 281.695 329.566 282.564C330.914 283.633 330.435 285.581 330.484 287.209C330.594 290.445 333.349 293.212 336.563 294.571C339.776 295.929 343.399 296.159 346.942 296.369C349.936 291.554 350.136 286.01 350.296 280.626C350.346 278.838 350.066 276.051 350.415 273.594H350.386Z" fill="#468B54"/>
<path d="M340.875 217.914C344.478 242.917 347.572 268.369 343.141 293.252" stroke="#15064A" stroke-miterlimit="10"/>
<path d="M337.421 217.744C336.403 222.399 335.385 227.094 335.405 231.839C335.445 240.889 339.257 249.55 340.754 258.5C342.431 268.499 341.183 278.688 339.946 288.737" stroke="#15064A" stroke-miterlimit="10"/>
<path d="M345.227 261.877C349.578 261.257 354.768 260.628 357.523 257.142C357.912 256.642 358.251 256.103 358.441 255.513C359.169 253.146 358.8 250.469 358.79 248.032C358.78 245.704 358.83 241.609 358.83 238.592" stroke="#15064A" stroke-miterlimit="10"/>
<path d="M341.293 278.478C337.381 279.118 333.059 279.687 329.696 277.769C327.63 276.59 326.232 274.603 325.494 272.495C324.755 270.377 324.616 268.13 324.625 265.902C324.645 263.485 324.835 261.067 325.244 258.67" stroke="#15064A" stroke-miterlimit="10"/>
<path d="M345.266 265.872C350.236 265.133 355.106 263.874 359.757 262.126C360.735 261.757 361.743 261.347 362.462 260.638C363.231 259.869 363.59 258.84 363.889 257.841C364.578 255.583 364.857 240.1 364.109 236.324" stroke="#15064A" stroke-miterlimit="10"/>
</g>
<path d="M326.752 288.078L356.015 287.459L353.041 309.265L330.704 309.255L326.752 288.078Z" fill="#ECBA40"/>
<path d="M319.306 304.859H195.808C194.43 304.859 193.312 305.977 193.312 307.357V308.206C193.312 309.585 194.43 310.703 195.808 310.703H319.306C320.684 310.703 321.801 309.585 321.801 308.206V307.357C321.801 305.977 320.684 304.859 319.306 304.859Z" fill="white"/>
<path d="M322.2 310.703H212.395L221.946 247.551C222.275 245.364 224.142 243.726 226.297 243.726H327.4C330.015 243.726 331.971 246.083 331.572 248.73L322.2 310.703Z" fill="white"/>
<path d="M277.318 277.979C280.223 277.979 282.578 275.622 282.578 272.715C282.578 269.807 280.223 267.45 277.318 267.45C274.413 267.45 272.059 269.807 272.059 272.715C272.059 275.622 274.413 277.979 277.318 277.979Z" stroke="#785AEC" stroke-width="2" stroke-miterlimit="10"/>
<path d="M282.758 238.841C282.099 235.954 281.77 232.988 281.79 230.031C281.81 227.134 282.239 225.036 284.135 222.848C285.433 221.36 287.279 219.462 288.826 218.224C293.188 214.747 294.864 208.294 292.768 203.13" stroke="white" stroke-width="2" stroke-miterlimit="10"/>
<path d="M291.959 230.35C291.38 227.873 292.748 225.325 294.484 223.467C296.221 221.6 298.357 220.111 299.864 218.053C303.097 213.648 302.938 209.513 302.349 201.341C301.93 195.598 302.039 189.085 306.181 185.079" stroke="white" stroke-width="2" stroke-miterlimit="10"/>
<path d="M358.519 308.535H39.7715C38.1179 308.535 36.7773 309.877 36.7773 311.532V312.551C36.7773 314.206 38.1179 315.548 39.7715 315.548H358.519C360.172 315.548 361.513 314.206 361.513 312.551V311.532C361.513 309.877 360.172 308.535 358.519 308.535Z" fill="#785AEC"/>
<path d="M391.166 127.162C393.631 142.815 394.639 159.637 387.473 173.762C383.481 181.643 377.183 188.176 373.61 196.287C369.797 204.948 368.45 213.938 367.502 223.328" stroke="#B5DDFB" stroke-width="2" stroke-miterlimit="10"/>
<path d="M68.1174 100.95C58.1469 113.007 43.3359 119.84 31.3593 129.899C11.9971 146.171 0.529518 171.444 1.00858 196.746" stroke="#B5DDFB" stroke-width="2" stroke-miterlimit="10"/>
<path d="M286.67 0.949219C302.918 6.09364 316.761 18.3803 323.817 33.9035" stroke="#B5DDFB" stroke-width="2" stroke-miterlimit="10"/>
<path d="M59.5332 335.027C81.5202 354.366 110.015 366.154 139.227 368.002" stroke="#B5DDFB" stroke-width="2" stroke-miterlimit="10"/>
<path d="M278.535 340.81C283.885 338.413 289.115 335.736 294.185 332.789" stroke="#75A2C4" stroke-width="2" stroke-miterlimit="10"/>
<path d="M205.697 355.504C226.926 354.565 245.35 353.556 268.235 344.486" stroke="#75A2C4" stroke-width="2" stroke-miterlimit="10"/>
</g>
<defs>
<linearGradient id="paint0_linear_10581_31689" x1="69.2148" y1="299.945" x2="101.691" y2="285.083" gradientUnits="userSpaceOnUse">
<stop stop-color="#15064A" stop-opacity="0.91"/>
<stop offset="0.56" stop-color="#2C196E" stop-opacity="0"/>
</linearGradient>
<linearGradient id="paint1_linear_10581_31689" x1="224.171" y1="315.418" x2="238.383" y2="284.49" gradientUnits="userSpaceOnUse">
<stop stop-color="#1E1D56" stop-opacity="0.91"/>
<stop offset="0.56" stop-color="#F7CC46" stop-opacity="0"/>
</linearGradient>
<linearGradient id="paint2_linear_10581_31689" x1="164.189" y1="259.628" x2="181.09" y2="275.866" gradientUnits="userSpaceOnUse">
<stop stop-color="#1E1D56" stop-opacity="0.91"/>
<stop offset="0.56" stop-color="#F7CC46" stop-opacity="0"/>
</linearGradient>
<linearGradient id="paint3_linear_10581_31689" x1="230.857" y1="205.002" x2="222.533" y2="220.945" gradientUnits="userSpaceOnUse">
<stop offset="0.27" stop-color="#1E1D56" stop-opacity="0.91"/>
<stop offset="0.56" stop-color="#ED7B66" stop-opacity="0"/>
</linearGradient>
<linearGradient id="paint4_linear_10581_31689" x1="159.058" y1="292.813" x2="150.363" y2="275.178" gradientUnits="userSpaceOnUse">
<stop offset="0.27" stop-color="#1E1D56" stop-opacity="0.91"/>
<stop offset="0.56" stop-color="#ED7B66" stop-opacity="0"/>
</linearGradient>
<linearGradient id="paint5_linear_10581_31689" x1="286.759" y1="249.31" x2="212.235" y2="168.352" gradientUnits="userSpaceOnUse">
<stop stop-color="white"/>
<stop offset="0.55" stop-color="white" stop-opacity="0.3"/>
</linearGradient>
<clipPath id="clip0_10581_31689">
<rect width="394" height="369" fill="white"/>
</clipPath>
</defs>
</svg>
