<svg width="16" height="16" viewBox="0 0 16 16" fill="none" xmlns="http://www.w3.org/2000/svg">
<path d="M11.4294 11.0695L10.9139 11.8428C10.811 11.9971 10.6749 12.1288 10.4956 12.1762C9.90816 12.3314 8.34859 12.4015 5.9742 10.0271C3.5998 7.65273 3.66988 6.09314 3.82511 5.5057C3.87249 5.32637 4.00419 5.19028 4.15853 5.08739L4.93178 4.57189C5.50748 4.18809 5.66305 3.41026 5.27925 2.83456L3.81884 0.643945C3.48384 0.141448 2.83803 -0.0505331 2.28293 0.187365L1.62414 0.469706C1.12368 0.684189 0.715439 1.06912 0.471938 1.55612C0.268501 1.96299 0.110823 2.39145 0.0894593 2.84585C0.0221336 4.27783 0.33613 7.8058 4.26582 11.7355C8.19552 15.6652 11.7235 15.9792 13.1555 15.9118C13.6098 15.8905 14.0383 15.7328 14.4452 15.5294C14.9322 15.2859 15.3171 14.8776 15.5316 14.3772L15.8139 13.7184C16.0518 13.1633 15.8599 12.5175 15.3574 12.1825L13.1667 10.7221C12.591 10.3383 11.8132 10.4938 11.4294 11.0695Z" fill="white"/>
</svg>
