<svg width="67" height="65" viewBox="0 0 67 65" fill="none" xmlns="http://www.w3.org/2000/svg">
<path d="M40.1848 62.7163C39.5479 64.2661 37.9531 65.023 36.2966 64.5418C35.7794 64.3952 35.2722 64.2155 34.7781 64.0041C33.8839 63.6144 33.0072 63.1848 32.0944 62.7581C32.4447 61.5716 32.4329 60.4338 31.6384 59.4665C30.8792 58.543 29.9037 57.9985 28.5721 58.2547C29.2071 57.0116 29.257 55.8436 28.4743 54.7273C27.7151 53.6362 26.6525 53.154 25.3375 53.2505C25.4354 52.7351 25.59 52.2237 25.6046 51.7094C25.6196 51.006 25.4037 50.3171 24.9896 49.7471C24.5755 49.177 23.9859 48.7572 23.3103 48.5512C22.6428 48.3468 21.9272 48.3593 21.2674 48.587C20.6075 48.8147 20.0376 49.2457 19.6403 49.8176C19.2793 50.3339 18.927 50.855 18.5269 51.4405C18.1932 50.329 17.5416 49.5633 16.5202 49.1503C15.4987 48.7372 14.5135 48.8522 13.539 49.424L9.94727 46.1937L17.5093 32.5674L24.5685 34.767C23.8836 35.7412 23.2369 36.6461 22.6176 37.5677C21.9982 38.4892 21.3261 39.4088 20.8075 40.3927C19.8027 42.3059 20.9553 44.037 23.1244 43.997C25.3454 43.9591 27.1417 43.1466 28.5447 41.3785C29.2296 40.5096 30.1219 39.7946 30.934 39.024C31.1199 38.8487 31.3645 38.7318 31.5837 38.5935C32.158 38.2223 32.6873 38.195 33.3448 38.536C36.6196 40.2487 39.7887 42.1546 42.8353 44.2435C45.1884 45.8469 47.5561 47.429 49.8798 49.0723C50.778 49.7167 51.624 50.4304 52.4099 51.2067C53.3022 52.0776 53.3414 52.8842 52.6878 53.8184C51.9794 54.8296 51.1224 55.1656 50.0246 54.626C48.6852 53.9674 47.4152 53.1647 46.1276 52.4059C44.3058 51.3343 42.4948 50.2355 40.6789 49.1493C40.3325 48.9428 40.0155 48.8093 39.7426 49.2818C39.4696 49.7543 39.4803 49.8965 39.9617 50.1722C42.4743 51.612 44.9884 53.0491 47.5042 54.4837C47.6167 54.548 47.739 54.5948 47.8564 54.6493C48.9718 55.1637 49.3152 56.4788 48.5971 57.4851C47.6598 58.7973 47.3154 58.9463 45.8801 58.2215C43.936 57.2386 42.0477 56.1447 40.1359 55.0974C39.4226 54.7078 38.7162 54.3016 37.9961 53.9285C37.5499 53.6947 37.4159 53.7746 37.1292 54.286C36.9199 54.661 37.1048 54.8422 37.4071 55.0244C39.3717 56.209 41.3305 57.4042 43.2932 58.5927C43.5436 58.7437 43.8059 58.8762 44.0671 59.0086C44.7158 59.336 44.8498 59.5337 44.6199 60.2224C44.0994 61.7869 43.212 62.387 41.7551 61.821C40.3775 61.2852 39.0557 60.6082 37.7104 59.9925C36.9111 59.6272 36.1068 59.2717 35.3172 58.8879C34.9503 58.7096 34.7009 58.693 34.4895 59.1148C34.2782 59.5366 34.5472 59.6555 34.831 59.8094C36.6078 60.7699 38.3787 61.7343 40.1848 62.7163Z" fill="black"/>
<path d="M49.8147 32.7185C52.2607 37.1363 54.6656 41.4956 57.0882 45.8783C56.0511 47.2099 54.8838 48.4403 53.3829 49.316C52.7079 49.7057 52.6071 49.695 52.0132 49.1991C49.2531 46.8855 46.2925 44.8408 43.2536 42.9159C40.3419 41.0718 37.3518 39.3476 34.4264 37.523C33.1545 36.732 31.9912 36.9005 30.8063 37.634C29.4894 38.4514 28.4132 39.5385 27.4661 40.7435C26.3018 42.2262 24.7627 42.8136 22.9302 42.7698C21.8315 42.7425 21.3374 41.9904 21.8637 41.0231C22.3901 40.0558 23.0104 39.1722 23.6161 38.2741C24.4966 36.9658 25.4388 35.6994 26.2734 34.3658C27.0366 33.1452 28.1138 32.5149 29.5021 32.3707C32.0293 32.1077 34.5566 31.834 37.0877 31.6226C39.0171 31.4619 40.8584 31.8963 42.6949 32.4896C44.0157 32.9153 45.4139 33.1315 46.7915 33.3517C47.8491 33.5183 48.8852 33.378 49.8147 32.7185Z" fill="black"/>
<path d="M42.2828 30.7655C47.0593 24.3625 50.0894 17.4031 50.3399 9.3411C49.7529 9.31285 49.1942 9.29045 48.6326 9.2583C44.8119 9.04301 41.0872 8.37085 37.6148 6.71188C36.3165 6.09232 35.1179 5.25845 33.8969 4.4918C33.6259 4.32229 33.4693 4.25897 33.1875 4.47426C30.0762 6.8541 26.506 8.15849 22.6707 8.75174C20.8411 9.03425 18.9821 9.12874 17.1359 9.30798L16.7113 9.35279C16.812 13.2235 17.5883 17.0472 19.0056 20.6529C20.4125 24.2787 22.3781 27.5869 24.7625 30.7665C23.4818 30.7665 22.2852 30.7714 21.0886 30.7558C20.9908 30.7558 20.8714 30.6282 20.8049 30.5317C17.6348 25.8753 15.3415 20.8448 14.2652 15.297C13.6848 12.2951 13.4967 9.23097 13.7056 6.18097C13.9365 6.19168 14.1557 6.2024 14.3748 6.21117C19.0848 6.40599 23.6951 5.94425 28.0343 3.97063C29.269 3.40952 30.4333 2.66235 31.5507 1.8879C32.3011 1.3677 32.9116 0.647808 33.6053 0C34.6278 1.20539 35.845 2.23259 37.2068 3.03934C39.7869 4.59018 42.6193 5.40555 45.5712 5.86437C47.8591 6.20713 50.1749 6.33011 52.4865 6.23162C52.7595 6.22188 53.0305 6.18973 53.4023 6.16051C53.4023 7.33728 53.4238 8.46924 53.4023 9.60023C53.3123 13.678 52.4787 17.6106 51.0385 21.4215C49.8234 24.6079 48.2317 27.639 46.2971 30.4509C46.1993 30.598 45.9772 30.748 45.8079 30.7519C44.672 30.7782 43.5322 30.7655 42.2828 30.7655Z" fill="#008F3A"/>
<path d="M0 40.956C0.115451 40.6248 0.183926 40.2672 0.35319 39.9662C2.63613 35.9079 4.92886 31.8551 7.23136 27.8079C7.93484 26.5697 9.03456 26.2833 10.2918 26.9876C12.036 27.9657 13.7792 28.9457 15.5214 29.9276C16.6866 30.5803 17.0252 31.6879 16.3677 32.8559C14.5368 36.1076 12.6977 39.3548 10.8505 42.5974C10.3782 43.43 9.90534 44.2622 9.43179 45.0942C8.86432 46.0888 7.71079 46.4492 6.69912 45.8949C4.81667 44.8633 2.94989 43.8044 1.0831 42.7445C0.407022 42.3587 0.0684882 41.7596 0 40.956ZM7.40454 42.1834C7.10816 42.1861 6.82436 42.3031 6.61286 42.5098C6.40137 42.7166 6.27866 42.997 6.27057 43.292C6.27137 43.5884 6.38871 43.8727 6.59746 44.084C6.8062 44.2953 7.08977 44.4169 7.38742 44.4226C7.68506 44.4284 7.97312 44.3178 8.18992 44.1147C8.40671 43.9115 8.535 43.632 8.54731 43.3358C8.5481 43.0325 8.42844 42.7411 8.21438 42.5252C8.00031 42.3094 7.70921 42.1865 7.40454 42.1834Z" fill="black"/>
<path d="M66.9984 40.6249C66.971 41.5746 66.655 42.1737 65.9945 42.5488C64.115 43.6204 62.2336 44.6851 60.3345 45.7187C59.3091 46.2778 58.1928 45.9193 57.6126 44.8984C55.2957 40.8213 52.9818 36.7432 50.6708 32.6641C50.0446 31.5585 50.3489 30.4148 51.4535 29.7914C53.2949 28.7562 55.1441 27.7343 57.0011 26.7257C57.9795 26.1929 59.1037 26.5027 59.6584 27.469C62.0066 31.5604 64.3459 35.6577 66.6765 39.7608C66.8595 40.0754 66.9358 40.4485 66.9984 40.6249ZM59.6202 44.2565C59.7712 44.2609 59.9214 44.2351 60.0622 44.1807C60.2029 44.1262 60.3312 44.0442 60.4395 43.9394C60.5478 43.8347 60.6339 43.7094 60.6927 43.5709C60.7514 43.4324 60.7817 43.2836 60.7816 43.1333C60.7792 42.8381 60.6619 42.5553 60.4545 42.3444C60.247 42.1335 59.9655 42.0109 59.6692 42.0023C59.3642 42.0012 59.071 42.1193 58.8526 42.3311C58.6341 42.543 58.5079 42.8317 58.501 43.1352C58.5057 43.43 58.6249 43.7114 58.8336 43.9205C59.0423 44.1295 59.3243 44.25 59.6202 44.2565Z" fill="black"/>
<path d="M45.3535 11.0437C45.2302 11.3291 45.1509 11.6437 44.9778 11.8941C44.1461 13.0962 43.2949 14.2837 42.4398 15.4692C39.9507 18.9196 37.4565 22.3662 34.957 25.8088C34.5103 26.4266 34.009 27.0033 33.459 27.5321C32.8407 28.1166 32.5061 28.1283 31.8936 27.5467C30.426 26.1488 28.9956 24.71 27.5573 23.2799C26.8196 22.5474 26.0966 21.7982 25.3667 21.0569C24.9244 20.6078 24.9176 20.3234 25.4215 19.9366C25.8706 19.5918 26.3627 19.2986 26.8421 18.9937C27.39 18.6469 27.9184 18.6868 28.4193 19.1008C29.6178 20.1003 30.8232 21.093 32.0051 22.1129C32.5237 22.56 32.6832 22.6 33.1861 22.1031C35.0529 20.2454 36.8981 18.3673 38.763 16.5115C40.3656 14.9191 41.9806 13.3384 43.608 11.7694C44.0502 11.3427 44.5707 11.0135 45.1959 10.9248L45.3535 11.0437Z" fill="#008F3A"/>
<path d="M16.7188 56.7514C16.8821 56.3539 16.9849 55.9175 17.2177 55.5668C18.3302 53.8903 19.4759 52.2352 20.6147 50.5772C21.2859 49.6031 22.4737 49.341 23.4433 49.9518C24.4325 50.5782 24.7201 51.7881 24.0656 52.7993C23.3435 53.9166 22.5716 55.0018 21.8201 56.1007C21.3808 56.7436 20.9572 57.3982 20.4954 58.0246C20.2369 58.3631 19.8771 58.6111 19.4678 58.7326C19.0586 58.8541 18.6211 58.8429 18.2186 58.7007C17.3899 58.423 16.8176 57.6447 16.7188 56.7514Z" fill="black"/>
<path d="M21.3223 59.7591C21.4524 59.4318 21.5424 59.0256 21.7547 58.6983C22.4787 57.5848 23.237 56.4928 23.9982 55.4037C24.7193 54.3721 25.9384 54.1568 26.9451 54.864C27.8639 55.5079 28.0214 56.8035 27.3277 57.7933C26.588 58.8541 25.8797 59.9364 25.1498 61.0031C24.6978 61.6636 24.0569 61.9558 23.2634 61.8867C22.4699 61.8175 21.8937 61.3996 21.5659 60.6816C21.4475 60.4235 21.4162 60.1264 21.3223 59.7591Z" fill="black"/>
<path d="M15.6024 50.1436C16.8284 50.1533 17.8479 51.7236 17.1679 53.0417C16.7866 53.7569 16.3307 54.4301 15.8079 55.0504C15.1465 55.8531 13.9489 55.9417 13.1163 55.3338C12.2514 54.7075 11.9677 53.6125 12.4989 52.7036C12.8896 52.0497 13.3206 51.4205 13.7894 50.8196C14.1691 50.3286 14.7267 50.1436 15.6024 50.1436Z" fill="black"/>
<path d="M27.8772 64.9975C27.503 64.9852 27.1403 64.866 26.8323 64.6541C26.5244 64.4421 26.2842 64.1464 26.1405 63.8022C25.7961 63.0346 25.9057 62.2854 26.4477 61.6123C26.9115 61.0346 27.3097 60.3966 27.8253 59.8715C28.4495 59.2364 29.5943 59.2987 30.2547 59.9124C31.2713 60.8564 31.3593 61.7136 30.5599 62.866C30.2664 63.2927 29.9817 63.7301 29.6794 64.1519C29.2704 64.7179 28.7117 64.9975 27.8772 64.9975Z" fill="black"/>
</svg>
