<svg width="29" height="29" viewBox="0 0 29 29" fill="none" xmlns="http://www.w3.org/2000/svg">
<path d="M2.72656 20.9307C2.72656 20.9307 8.54618 18.2389 8.54618 9.10341C8.54618 7.48715 9.18824 5.93708 10.3311 4.79421C11.474 3.65134 13.024 3.00928 14.6403 3.00928C16.2566 3.00928 17.8066 3.65134 18.9495 4.79421C20.0924 5.93708 20.7344 7.48715 20.7344 9.10341C20.7344 18.2389 26.5541 20.9306 26.5541 20.9306C25.5469 21.876 23.4056 21.2992 22.1862 21.9705C20.985 22.6318 20.3283 24.7543 18.9686 25.1022C17.6537 25.4386 16.06 23.9035 14.6403 23.9035C13.2206 23.9035 11.6269 25.4386 10.3121 25.1022C8.95233 24.7543 8.29567 22.6318 7.09439 21.9705C5.875 21.2992 3.73374 21.876 2.72656 20.9307Z" stroke="white" stroke-width="1.74118" stroke-linecap="round" stroke-linejoin="round"/>
<path d="M21.3086 13.7463L24.2114 12.5852" stroke="white" stroke-width="1.74118" stroke-linecap="round" stroke-linejoin="round"/>
<path d="M7.96549 13.7464L5.0625 12.5852" stroke="white" stroke-width="1.74118" stroke-linecap="round" stroke-linejoin="round"/>
</svg>
