<svg width="11" height="11" viewBox="0 0 11 11" fill="none" xmlns="http://www.w3.org/2000/svg">
<path d="M1.20336 8.53945L2.57959 10.2116C2.76538 10.4387 2.89612 10.6795 2.62087 10.8997C2.34563 11.1199 2.13231 10.941 1.93276 10.7139C1.35474 10.0258 0.783609 9.26887 0.191831 8.56012C0.131463 8.50591 0.0831971 8.43959 0.0501469 8.36549C0.0170967 8.2914 0 8.21118 0 8.13005C0 8.04891 0.0170967 7.9687 0.0501469 7.8946C0.0831971 7.8205 0.131463 7.75418 0.191831 7.69997C0.79049 7.01186 1.36163 6.2687 1.93965 5.55306C2.11855 5.32599 2.31811 5.11956 2.62776 5.34664C2.93741 5.57372 2.77915 5.83519 2.58647 6.06915C2.15984 6.58523 1.74697 7.10821 1.25153 7.71375H8.0501C8.36663 7.71375 8.73821 7.67934 8.73821 8.14038C8.73821 8.60141 8.38039 8.53261 8.0501 8.53261H1.20336V8.53945Z" fill="white"/>
<path d="M9.51199 2.38773L8.32154 0.915203C8.23209 0.805105 8.08759 0.695013 8.07383 0.578034C8.0757 0.383017 8.1011 0.188922 8.14951 0C8.32842 0 8.5899 1.00794e-05 8.67935 0.096346C9.36288 0.894558 10.0212 1.71112 10.6543 2.54603C10.6924 2.63966 10.7074 2.74113 10.6978 2.84179C10.6882 2.94245 10.6544 3.03928 10.5992 3.12402C10.0074 3.90847 9.37436 4.66543 8.75506 5.43611C8.57615 5.65631 8.32842 5.78703 8.12887 5.54619C8.07828 5.4533 8.05178 5.3492 8.05178 5.24342C8.05178 5.13764 8.07828 5.03355 8.12887 4.94065C8.53486 4.36952 8.99589 3.83968 9.5051 3.22725C9.26426 3.22725 9.09911 3.22725 8.94084 3.22725H2.78224C2.63773 3.22725 2.47258 3.26854 2.36936 3.22725C2.26615 3.18597 2.03906 2.97954 2.03906 2.8488C2.03906 2.71806 2.21797 2.55291 2.35559 2.46346C2.49136 2.43152 2.63269 2.43152 2.76846 2.46346H9.51199V2.38773Z" fill="white"/>
</svg>
