<svg version="1.2" xmlns="http://www.w3.org/2000/svg" viewBox="0 0 18 14" width="18" height="14">
	<title>Group 1-svg</title>
	<style>
		.s0 { fill: #fcbf49 } 
		.s1 { fill: #000000 } 
	</style>
	<g id="Group_1">
		<g id="Folder 1">
			<path id="Star_7" className="s0" d="m7 0.4q0-0.1 0.1-0.1 0.1 0 0.2-0.1 0 0.1 0.1 0.1 0.1 0 0.1 0.1l1.5 4q0.1 0.1 0.1 0.2 0.1 0.1 0.2 0.2 0.1 0 0.2 0.1 0.1 0 0.2 0l4.1 0.3q0 0 0.1 0.1 0.1 0 0.1 0.1 0 0.1 0 0.1 0 0.1-0.1 0.2l-3.1 2.7q-0.1 0.1-0.2 0.2 0 0.1-0.1 0.2 0 0.1 0 0.2 0 0.1 0 0.2l1 4.2q0 0.1 0 0.2 0 0-0.1 0.1 0 0-0.1 0-0.1 0.1-0.2 0l-3.4-2.3q-0.1 0-0.2-0.1-0.1 0-0.2 0-0.2 0-0.3 0-0.1 0.1-0.2 0.1l-3.4 2.3q-0.1 0.1-0.2 0-0.1 0-0.1 0-0.1-0.1-0.1-0.1 0-0.1 0-0.2l1-4.2q0-0.1 0-0.2 0-0.1 0-0.2-0.1-0.1-0.1-0.2-0.1-0.1-0.2-0.2l-3.1-2.7q-0.1-0.1-0.1-0.2 0 0 0-0.1 0-0.1 0.1-0.1 0.1-0.1 0.1-0.1l4.1-0.3q0.1 0 0.2 0 0.1-0.1 0.2-0.1 0.1-0.1 0.2-0.2 0-0.1 0.1-0.2z"/>
			<path id="Star_7_-_Outline" fill-rule="evenodd" className="s1" d="m7 0q0.1 0 0.2 0 0 0 0.1 0.1 0.1 0 0.1 0.1 0 0.1 0.1 0.1l1.5 4q0 0.1 0.1 0.1 0 0.1 0.1 0.1 0 0.1 0.1 0.1 0.1 0 0.1 0l4.1 0.3q0.1 0 0.2 0.1 0 0 0.1 0.1 0.1 0 0.1 0.1 0.1 0 0.1 0.1 0 0.1 0 0.2 0 0 0 0.1 0 0.1-0.1 0.2 0 0-0.1 0.1l-3.1 2.7q-0.1 0.1-0.1 0.1-0.1 0.1-0.1 0.2 0 0.1 0 0.1 0 0.1 0 0.2l1 4.1q0 0.1 0 0.2 0 0 0 0.1 0 0 0 0.1 0 0-0.1 0.1 0 0-0.1 0.1 0 0-0.1 0 0 0.1-0.1 0.1 0 0-0.1 0 0 0-0.1 0 0 0 0 0-0.1 0-0.1 0 0-0.1-0.1-0.1l-3.4-2.3q-0.1 0-0.2 0 0 0-0.1 0-0.1 0-0.1 0-0.1 0-0.2 0l-3.4 2.3q-0.1 0-0.1 0.1 0 0-0.1 0 0 0 0 0-0.1 0-0.1 0-0.1 0-0.1 0-0.1 0-0.1-0.1-0.1 0-0.1 0-0.1-0.1-0.1-0.1-0.1-0.1-0.1-0.1 0-0.1 0-0.1 0-0.1 0-0.1 0-0.1 0-0.2l1-4.1q0-0.1 0-0.2 0 0 0-0.1 0-0.1-0.1-0.2 0 0-0.1-0.1l-3.1-2.7q-0.1-0.1-0.1-0.1-0.1-0.1-0.1-0.2 0-0.1 0-0.1 0-0.1 0-0.2 0-0.1 0.1-0.1 0-0.1 0.1-0.1 0.1-0.1 0.1-0.1 0.1-0.1 0.2-0.1l4.1-0.3q0 0 0.1 0 0.1 0 0.1-0.1 0.1 0 0.1-0.1 0.1 0 0.1-0.1l1.5-4q0.1 0 0.1-0.1 0-0.1 0.1-0.1 0.1-0.1 0.1-0.1 0.1 0 0.2 0zm4 13.5l-1-4.2q0-0.1 0-0.3 0-0.1 0-0.3 0.1-0.1 0.2-0.3 0-0.1 0.1-0.2l3.2-2.7-4.1-0.3q-0.1 0-0.3-0.1-0.1 0-0.2-0.1-0.2-0.1-0.2-0.2-0.1-0.2-0.2-0.3l-1.5-4-1.5 4q-0.1 0.2-0.2 0.3-0.1 0.1-0.2 0.2-0.1 0.1-0.2 0.1-0.2 0.1-0.3 0.1l-4.1 0.3 3.2 2.7q0.1 0.1 0.1 0.2 0.1 0.2 0.2 0.3 0 0.2 0 0.3 0 0.2 0 0.3l-1 4.2 3.5-2.3q0.1-0.1 0.2-0.1 0.2-0.1 0.3-0.1 0.1 0 0.3 0.1 0.1 0 0.2 0.1z"/>
		</g>
	</g>
</svg>