<svg width="68" height="68" viewBox="0 0 68 68" fill="none" xmlns="http://www.w3.org/2000/svg">
<mask id="path-1-inside-1_1_5652" fill="white">
<path fill-rule="evenodd" clip-rule="evenodd" d="M34 68C52.7777 68 68 52.7777 68 34C68 15.2223 52.7777 0 34 0C15.2223 0 0 15.2223 0 34C0 52.7777 15.2223 68 34 68ZM25.0945 28.3333C27.3299 28.3333 29.1421 26.5211 29.1421 24.2857C29.1421 22.0502 27.3299 20.238 25.0945 20.238C22.8591 20.238 21.0469 22.0502 21.0469 24.2857C21.0469 26.5211 22.8591 28.3333 25.0945 28.3333ZM47.7613 24.2857C47.7613 26.5211 45.9491 28.3333 43.7136 28.3333C41.4782 28.3333 39.666 26.5211 39.666 24.2857C39.666 22.0502 41.4782 20.238 43.7136 20.238C45.9491 20.238 47.7613 22.0502 47.7613 24.2857ZM23.7481 49.3183C25.5838 45.0693 29.6913 42.1667 34.4055 42.1667C39.1197 42.1667 43.2272 45.0693 45.0629 49.3183C45.6105 50.5857 47.0819 51.1693 48.3494 50.6217C49.6169 50.0741 50.2005 48.6027 49.6529 47.3352C47.08 41.3801 41.2473 37.1667 34.4055 37.1667C27.5637 37.1667 21.731 41.3801 19.1582 47.3352C18.6106 48.6027 19.1941 50.0741 20.4616 50.6217C21.7291 51.1693 23.2005 50.5857 23.7481 49.3183Z"/>
</mask>
<path fill-rule="evenodd" clip-rule="evenodd" d="M34 68C52.7777 68 68 52.7777 68 34C68 15.2223 52.7777 0 34 0C15.2223 0 0 15.2223 0 34C0 52.7777 15.2223 68 34 68ZM25.0945 28.3333C27.3299 28.3333 29.1421 26.5211 29.1421 24.2857C29.1421 22.0502 27.3299 20.238 25.0945 20.238C22.8591 20.238 21.0469 22.0502 21.0469 24.2857C21.0469 26.5211 22.8591 28.3333 25.0945 28.3333ZM47.7613 24.2857C47.7613 26.5211 45.9491 28.3333 43.7136 28.3333C41.4782 28.3333 39.666 26.5211 39.666 24.2857C39.666 22.0502 41.4782 20.238 43.7136 20.238C45.9491 20.238 47.7613 22.0502 47.7613 24.2857ZM23.7481 49.3183C25.5838 45.0693 29.6913 42.1667 34.4055 42.1667C39.1197 42.1667 43.2272 45.0693 45.0629 49.3183C45.6105 50.5857 47.0819 51.1693 48.3494 50.6217C49.6169 50.0741 50.2005 48.6027 49.6529 47.3352C47.08 41.3801 41.2473 37.1667 34.4055 37.1667C27.5637 37.1667 21.731 41.3801 19.1582 47.3352C18.6106 48.6027 19.1941 50.0741 20.4616 50.6217C21.7291 51.1693 23.2005 50.5857 23.7481 49.3183Z" fill="#8EDCE6"/>
<path d="M23.7481 49.3183L18.2402 46.9386L23.7481 49.3183ZM45.0629 49.3183L39.555 51.6979L39.555 51.6979L45.0629 49.3183ZM48.3494 50.6217L45.9698 45.1138L45.9698 45.1138L48.3494 50.6217ZM49.6529 47.3352L55.1608 44.9556L55.1608 44.9556L49.6529 47.3352ZM19.1582 47.3352L13.6502 44.9556L19.1582 47.3352ZM20.4616 50.6217L18.082 56.1297H18.082L20.4616 50.6217ZM62 34C62 49.464 49.464 62 34 62V74C56.0914 74 74 56.0914 74 34H62ZM34 6C49.464 6 62 18.536 62 34H74C74 11.9086 56.0914 -6 34 -6V6ZM6 34C6 18.536 18.536 6 34 6V-6C11.9086 -6 -6 11.9086 -6 34H6ZM34 62C18.536 62 6 49.464 6 34H-6C-6 56.0914 11.9086 74 34 74V62ZM23.1421 24.2857C23.1421 23.2074 24.0162 22.3333 25.0945 22.3333V34.3333C30.6436 34.3333 35.1421 29.8348 35.1421 24.2857H23.1421ZM25.0945 26.238C24.0162 26.238 23.1421 25.3639 23.1421 24.2857H35.1421C35.1421 18.7365 30.6436 14.238 25.0945 14.238V26.238ZM27.0469 24.2857C27.0469 25.3639 26.1728 26.238 25.0945 26.238V14.238C19.5453 14.238 15.0469 18.7365 15.0469 24.2857H27.0469ZM25.0945 22.3333C26.1728 22.3333 27.0469 23.2074 27.0469 24.2857H15.0469C15.0469 29.8348 19.5453 34.3333 25.0945 34.3333V22.3333ZM43.7136 34.3333C49.2628 34.3333 53.7613 29.8348 53.7613 24.2857H41.7613C41.7613 23.2074 42.6354 22.3333 43.7136 22.3333V34.3333ZM33.666 24.2857C33.666 29.8348 38.1645 34.3333 43.7136 34.3333V22.3333C44.7919 22.3333 45.666 23.2074 45.666 24.2857H33.666ZM43.7136 14.238C38.1645 14.238 33.666 18.7365 33.666 24.2857H45.666C45.666 25.3639 44.7919 26.238 43.7136 26.238V14.238ZM53.7613 24.2857C53.7613 18.7365 49.2628 14.238 43.7136 14.238V26.238C42.6354 26.238 41.7613 25.3639 41.7613 24.2857H53.7613ZM34.4055 36.1667C27.1431 36.1667 20.9625 40.6375 18.2402 46.9386L29.256 51.6979C30.2051 49.5011 32.2395 48.1667 34.4055 48.1667V36.1667ZM50.5709 46.9386C47.8485 40.6375 41.6679 36.1667 34.4055 36.1667V48.1667C36.5715 48.1667 38.6059 49.5011 39.555 51.6979L50.5709 46.9386ZM45.9698 45.1138C47.7442 44.3471 49.8042 45.1642 50.5708 46.9386L39.555 51.6979C41.4168 56.0073 46.4196 57.9915 50.729 56.1297L45.9698 45.1138ZM44.1449 49.7149C43.3783 47.9404 44.1953 45.8804 45.9698 45.1138L50.729 56.1297C55.0385 54.2678 57.0226 49.265 55.1608 44.9556L44.1449 49.7149ZM34.4055 43.1667C38.6908 43.1667 42.4552 45.8039 44.1449 49.7149L55.1608 44.9556C51.7048 36.9563 43.8038 31.1667 34.4055 31.1667V43.1667ZM24.6661 49.7149C26.3558 45.8039 30.1202 43.1667 34.4055 43.1667V31.1667C25.0072 31.1667 17.1062 36.9563 13.6502 44.9556L24.6661 49.7149ZM22.8412 45.1138C24.6157 45.8804 25.4327 47.9404 24.6661 49.7149L13.6502 44.9556C11.7884 49.265 13.7725 54.2678 18.082 56.1297L22.8412 45.1138ZM18.2402 46.9386C19.0068 45.1642 21.0668 44.3472 22.8412 45.1138L18.082 56.1297C22.3914 57.9915 27.3942 56.0073 29.256 51.6979L18.2402 46.9386Z" fill="#8EDCE6" mask="url(#path-1-inside-1_1_5652)"/>
</svg>
