<svg width="33" height="32" viewBox="0 0 33 32" fill="none" xmlns="http://www.w3.org/2000/svg">
<path d="M6.62617 24.5625C6.62617 24.5625 11.5121 23.5853 12.4893 20.6538C12.4893 20.6538 4.67178 17.7222 6.62617 6.97305C6.62617 6.97305 10.5349 11.859 16.3981 12.8362V10.8822C16.3982 9.75957 16.7848 8.67124 17.4929 7.80015C18.2011 6.92905 19.1875 6.32832 20.2864 6.09895C21.3853 5.86958 22.5297 6.02555 23.5272 6.54065C24.5246 7.05575 25.3143 7.89856 25.7635 8.92739L30.0788 8.92744L26.17 12.8362C26.17 19.6766 21.2841 26.5169 12.4893 26.5169C8.58055 26.5169 6.62617 24.5625 6.62617 24.5625Z" stroke="white" stroke-width="1.95439" stroke-linecap="round" stroke-linejoin="round"/>
</svg>
