<svg width="51" height="35" viewBox="0 0 51 35" fill="none" xmlns="http://www.w3.org/2000/svg">
<rect x="0.364286" y="0.364286" width="50.2714" height="34.2714" rx="4.00714" fill="white" stroke="#D9D9D9" stroke-width="0.728571"/>
<path fill-rule="evenodd" clip-rule="evenodd" d="M15.4801 23.7075H12.3905L10.0736 14.8614C9.96365 14.4545 9.73016 14.0948 9.38671 13.9252C8.52957 13.4991 7.58506 13.16 6.55469 12.989V12.6484H11.5318C12.2187 12.6484 12.7339 13.16 12.8198 13.7542L14.0219 20.1352L17.11 12.6484H20.1137L15.4801 23.7075ZM21.828 23.7075H18.9102L21.3129 12.6484H24.2307L21.828 23.7075ZM28.009 15.7133C28.0949 15.1176 28.6101 14.7771 29.2111 14.7771C30.1556 14.6916 31.1845 14.8626 32.0431 15.2872L32.5583 12.9061C31.6997 12.5656 30.7552 12.3945 29.898 12.3945C27.066 12.3945 25.0053 13.9264 25.0053 16.0524C25.0053 17.6697 26.465 18.519 27.4953 19.0306C28.6101 19.5407 29.0394 19.8813 28.9535 20.3914C28.9535 21.1566 28.0949 21.4971 27.2377 21.4971C26.2074 21.4971 25.177 21.2421 24.234 20.816L23.7188 23.1985C24.7492 23.6231 25.8639 23.7942 26.8943 23.7942C30.0698 23.8782 32.0431 22.3478 32.0431 20.0508C32.0431 17.1581 28.009 16.9886 28.009 15.7133ZM42.2547 23.7075L39.9379 12.6484H37.4493C36.9342 12.6484 36.419 12.989 36.2472 13.4991L31.957 23.7075H34.9608L35.5603 22.0916H39.251L39.5944 23.7075H42.2547ZM37.8776 15.6289L38.7347 19.7969H36.332L37.8776 15.6289Z" fill="#172B85"/>
</svg>
