<svg width="35" height="35" viewBox="0 0 35 35" fill="none" xmlns="http://www.w3.org/2000/svg">
<path d="M21.322 17.0571L14.9258 12.793V21.3212L21.322 17.0571Z" stroke="white" stroke-width="2.13206" stroke-linecap="round" stroke-linejoin="round"/>
<path d="M3.19922 17.058C3.19922 21.0231 3.60886 23.3494 3.92027 24.5451C4.00351 24.8717 4.16336 25.1737 4.38658 25.4261C4.60981 25.6786 4.88997 25.8742 5.20387 25.9968C9.6648 27.7111 17.0576 27.664 17.0576 27.664C17.0576 27.664 24.4503 27.7111 28.9113 25.9968C29.2252 25.8742 29.5054 25.6786 29.7286 25.4261C29.9518 25.1737 30.1117 24.8717 30.1949 24.5451C30.5063 23.3495 30.916 21.0231 30.916 17.058C30.916 13.093 30.5063 10.7666 30.1949 9.57095C30.1117 9.2444 29.9518 8.94239 29.7286 8.68993C29.5054 8.43747 29.2252 8.24184 28.9113 8.11924C24.4504 6.40496 17.0576 6.45203 17.0576 6.45203C17.0576 6.45203 9.66488 6.40496 5.20391 8.11922C4.89001 8.24182 4.60985 8.43745 4.38662 8.68991C4.1634 8.94236 4.00354 9.24438 3.92029 9.57093C3.60888 10.7666 3.19922 13.093 3.19922 17.058Z" stroke="white" stroke-width="2.13206" stroke-linecap="round" stroke-linejoin="round"/>
</svg>
