<svg width="21" height="24" viewBox="0 0 21 24" fill="none" xmlns="http://www.w3.org/2000/svg">
<path d="M19.4764 8.1718C19.3698 8.23853 16.8322 9.64687 16.8322 12.7695C16.9518 16.3306 20.0345 17.5795 20.0874 17.5795C20.0345 17.6462 19.622 19.2807 18.4 20.9941C17.4302 22.4701 16.3538 23.9581 14.7192 23.9581C13.1644 23.9581 12.6063 22.9745 10.8123 22.9745C8.88568 22.9745 8.34055 23.9581 6.86548 23.9581C5.23095 23.9581 4.07482 22.3903 3.05215 20.9283C1.72355 19.0147 0.594284 16.0117 0.554418 13.1283C0.527551 11.6003 0.820484 10.0984 1.56408 8.82267C2.61362 7.04167 4.48735 5.83267 6.53355 5.7928C8.10135 5.73993 9.49668 6.8692 10.4535 6.8692C11.3704 6.8692 13.0847 5.7928 15.0243 5.7928C15.8615 5.79367 18.094 6.04587 19.4764 8.1718ZM10.3209 5.48773C10.0418 4.0924 10.8123 2.69707 11.5299 1.807C12.4468 0.7306 13.895 0 15.1439 0C15.2236 1.39533 14.7184 2.7638 13.8153 3.76047C13.005 4.83687 11.6096 5.6472 10.3209 5.48773Z" fill="black"/>
</svg>
