<svg width="24" height="25" viewBox="0 0 24 25" fill="none" xmlns="http://www.w3.org/2000/svg">
<path d="M24 12.7219C23.9987 10.4287 23.3404 8.18389 22.103 6.25321C20.8656 4.32254 19.1009 2.78688 17.0178 1.82798C14.9347 0.86909 12.6204 0.527136 10.349 0.842631C8.07766 1.15813 5.94424 2.11781 4.20134 3.60813C2.45844 5.09845 1.17907 7.05697 0.514679 9.25181C-0.149713 11.4467 -0.171307 13.7859 0.452469 15.9927C1.07625 18.1994 2.31927 20.1812 4.03436 21.7034C5.74946 23.2256 7.86481 24.2245 10.13 24.5819V16.1919H7.12999V12.7219H10.13V10.0819C10.13 7.08189 11.92 5.41191 14.66 5.41191C15.5577 5.42417 16.4533 5.50102 17.34 5.64189V8.64189H15.84C15.579 8.59945 15.3118 8.61743 15.0589 8.69438C14.8059 8.77133 14.5739 8.90522 14.3808 9.08579C14.1877 9.26637 14.0385 9.48885 13.9448 9.73606C13.851 9.98328 13.8152 10.2487 13.84 10.5119V12.7619H17.16L16.63 16.2319H13.84V24.6219C16.677 24.1817 19.2621 22.739 21.1263 20.5556C22.9904 18.3722 24.01 15.5928 24 12.7219V12.7219Z" fill="#1877F2"/>
<path d="M16.6706 16.1918L17.2006 12.7218H13.8406V10.4818C13.8158 10.2186 13.8516 9.95315 13.9454 9.70593C14.0391 9.45871 14.1883 9.2363 14.3814 9.05573C14.5746 8.87515 14.8065 8.74126 15.0595 8.66431C15.3124 8.58736 15.5797 8.56938 15.8406 8.61182H17.3506V5.61182C16.464 5.47095 15.5683 5.3941 14.6706 5.38184C11.9306 5.38184 10.1406 7.04182 10.1406 10.0518V12.6918H7.14062V16.1618H10.1406V24.5518C10.7597 24.6443 11.3847 24.6911 12.0106 24.6918C12.6398 24.6907 13.2682 24.6439 13.8906 24.5518V16.1618L16.6706 16.1918Z" fill="white"/>
</svg>
