<svg width="24" height="24" viewBox="0 0 24 24" fill="none" xmlns="http://www.w3.org/2000/svg">
<path d="M23.096 9.93777H22.1703V9.89177H11.8203V14.4918H18.3178C17.8188 15.883 16.8863 17.0771 15.6575 17.8985C14.4288 18.7199 12.9688 19.125 11.4926 19.0542C10.0163 18.9834 8.60175 18.4405 7.45724 17.5054C6.31272 16.5703 5.49871 15.2923 5.13507 13.8598C4.77143 12.4273 4.87737 10.9158 5.4373 9.54805C5.99723 8.18026 6.98155 7.02839 8.24533 6.26207C9.50911 5.49575 10.9855 5.15547 12.4573 5.29134C13.929 5.42721 15.3182 6.03204 16.4203 7.01677L19.6748 3.76227C17.7444 1.95728 15.2513 0.872203 12.6149 0.689604C9.97845 0.507006 7.35956 1.23803 5.19883 2.75968C3.0381 4.28133 1.46739 6.50075 0.750956 9.04455C0.0345222 11.5883 0.216087 14.3013 1.2651 16.7269C2.31412 19.1526 4.16657 21.1429 6.5108 22.3631C8.85503 23.5832 11.548 23.9587 14.1366 23.4264C16.7252 22.8942 19.0515 21.4865 20.724 19.4404C22.3966 17.3943 23.3135 14.8345 23.3203 12.1918C23.3189 11.4349 23.2437 10.68 23.096 9.93777Z" fill="#FFC107"/>
<path d="M1.64844 6.83851L5.42619 9.61001C5.83748 8.58119 6.49047 7.66654 7.32995 6.94343C8.16944 6.22031 9.17071 5.70998 10.2491 5.45562C11.3275 5.20125 12.4513 5.21031 13.5254 5.48205C14.5996 5.75378 15.5925 6.28019 16.4202 7.01676L19.6747 3.76226C18.3801 2.55597 16.8246 1.66468 15.1293 1.15777C13.434 0.65086 11.6446 0.542002 9.90032 0.839667C8.15606 1.13733 6.50402 1.83349 5.07277 2.87396C3.64152 3.91443 2.46967 5.27115 1.64844 6.83851V6.83851Z" fill="#FF3D00"/>
<path d="M11.82 23.6918C14.672 23.6912 17.4214 22.6271 19.5307 20.7075L15.9715 17.6945C15.1084 18.3434 14.1051 18.7808 13.0422 18.9713C11.9793 19.1618 10.8866 19.1003 9.85186 18.7915C8.81713 18.4828 7.8693 17.9355 7.08462 17.1937C6.29994 16.4519 5.70031 15.5363 5.33396 14.5205L1.58496 17.3955C2.54456 19.2867 4.00841 20.8756 5.81468 21.9868C7.62094 23.0979 9.69929 23.688 11.82 23.6918V23.6918Z" fill="#4CAF50"/>
<path d="M23.0961 9.9376H22.1703V9.8916H11.8203V14.4916H18.3178C17.8665 15.766 17.0507 16.8796 15.9718 17.6944L19.5311 20.7074C20.7406 19.6461 21.7057 18.3353 22.3599 16.8652C23.014 15.395 23.3417 13.8006 23.3203 12.1916C23.3189 11.4348 23.2438 10.6799 23.0961 9.9376Z" fill="#1976D2"/>
</svg>
