<svg width="25" height="21" viewBox="0 0 25 21" fill="none" xmlns="http://www.w3.org/2000/svg">
<path d="M7.7197 20.4813C9.56117 20.4919 11.3864 20.137 13.0898 19.4372C14.7931 18.7374 16.3407 17.7066 17.6429 16.4045C18.945 15.1023 19.9758 13.5548 20.6756 11.8514C21.3754 10.1481 21.7303 8.32278 21.7197 6.48131C21.7197 6.27131 21.7197 6.0613 21.7197 5.8413C22.6834 5.14273 23.5162 4.27949 24.1797 3.29131C23.2749 3.68497 22.3186 3.94764 21.3397 4.07134C22.3672 3.45126 23.1374 2.48223 23.5097 1.3413C22.5439 1.91771 21.4845 2.32046 20.3797 2.5313C19.7054 1.80739 18.8284 1.3036 17.8634 1.08568C16.8983 0.867762 15.89 0.945849 14.97 1.30974C14.05 1.67363 13.2611 2.30644 12.7063 3.12554C12.1514 3.94464 11.8564 4.91196 11.8597 5.90129C11.8623 6.28154 11.9059 6.6604 11.9897 7.0313C10.0308 6.93025 8.11496 6.41869 6.36642 5.52977C4.61788 4.64086 3.07565 3.39447 1.83969 1.87133C1.22467 2.95959 1.0396 4.23876 1.32095 5.45671C1.6023 6.67467 2.32966 7.74302 3.35968 8.45128C2.58103 8.42332 1.82015 8.21082 1.13968 7.83129V7.90129C1.14145 9.03651 1.53417 10.1365 2.25174 11.0162C2.96931 11.8958 3.96796 12.5015 5.07968 12.7313C4.65892 12.8439 4.22527 12.9011 3.7897 12.9013C3.48132 12.9008 3.17353 12.8741 2.86969 12.8213C3.18072 13.8011 3.7926 14.6579 4.61838 15.27C5.44416 15.8822 6.44184 16.2185 7.4697 16.2313C5.72623 17.6062 3.57009 18.3531 1.3497 18.3513C0.958594 18.3534 0.567752 18.33 0.179688 18.2813C2.43161 19.7191 5.04793 20.4825 7.7197 20.4813" fill="#1DA1F2"/>
</svg>
